<svg width="669" height="551" viewBox="0 0 669 551" version="1.1" xmlns="http://www.w3.org/2000/svg" xmlns:xlink="http://www.w3.org/1999/xlink">
<title>coming_soon</title>
<desc>Created using Figma</desc>
<g id="Canvas" transform="translate(-2826 1768)">
<g id="coming_soon">
<g id="Rectangle 4">
<use xlink:href="#path0_fill" transform="matrix(0.794347 -0.607465 0.607465 0.794347 2826.35 -1312.32)" fill="#EB5757"/>
</g>
<g id="COMING SOON">
<use xlink:href="#path1_fill" transform="matrix(0.794347 -0.607465 0.607465 0.794347 2889.42 -1341.1)" fill="#F2F2F2"/>
</g>
</g>
</g>
<defs>
<path id="path0_fill" d="M 0 0L 749.617 0L 749.617 118.937L 0 118.937L 0 0Z"/>
<path id="path1_fill" d="M 61.6261 54.3184C 61.268 62.4238 58.9894 68.5599 54.7902 72.7266C 50.5909 76.8932 44.6665 78.9766 37.0167 78.9766C 28.9764 78.9766 22.8077 76.3398 18.5109 71.0664C 14.2465 65.7604 12.1144 58.2083 12.1144 48.4102L 12.1144 36.4473C 12.1144 26.6816 14.3279 19.1621 18.755 13.8887C 23.1821 8.58268 29.3344 5.92969 37.212 5.92969C 44.9594 5.92969 50.8351 8.0944 54.839 12.4238C 58.8754 16.7533 61.1704 22.9707 61.7238 31.0762L 47.3195 31.0762C 47.1892 26.0632 46.408 22.6126 44.9757 20.7246C 43.576 18.804 40.9881 17.8438 37.212 17.8438C 33.3709 17.8438 30.6528 19.1947 29.0577 21.8965C 27.4627 24.5658 26.6163 28.9766 26.5187 35.1289L 26.5187 48.5566C 26.5187 55.6204 27.2999 60.4707 28.8624 63.1074C 30.4575 65.7441 33.1756 67.0625 37.0167 67.0625C 40.7928 67.0625 43.3969 66.151 44.8292 64.3281C 46.2615 62.4727 47.0753 59.1361 47.2706 54.3184L 61.6261 54.3184ZM 120.513 48.8496C 120.513 58.3874 118.25 65.793 113.726 71.0664C 109.234 76.3398 102.984 78.9766 94.9757 78.9766C 87.0004 78.9766 80.7342 76.3724 76.1769 71.1641C 71.6196 65.9232 69.3084 58.599 69.2433 49.1914L 69.2433 37.0332C 69.2433 27.2676 71.5057 19.6504 76.0304 14.1816C 80.5551 8.68034 86.8377 5.92969 94.8781 5.92969C 102.788 5.92969 109.022 8.63151 113.579 14.0352C 118.137 19.4062 120.448 26.9583 120.513 36.6914L 120.513 48.8496ZM 106.109 36.9355C 106.109 30.5228 105.197 25.7539 103.374 22.6289C 101.551 19.5039 98.7192 17.9414 94.8781 17.9414C 91.0695 17.9414 88.2537 19.4551 86.4308 22.4824C 84.6079 25.4772 83.6639 30.0508 83.5988 36.2031L 83.5988 48.8496C 83.5988 55.0671 84.5265 59.6569 86.382 62.6191C 88.2374 65.5488 91.102 67.0137 94.9757 67.0137C 98.7192 67.0137 101.502 65.5814 103.325 62.7168C 105.148 59.8197 106.076 55.3438 106.109 49.2891L 106.109 36.9355ZM 149.566 6.90625L 162.993 58.3223L 176.372 6.90625L 195.122 6.90625L 195.122 78L 180.718 78L 180.718 58.7617L 182.036 29.123L 167.827 78L 158.062 78L 143.853 29.123L 145.171 58.7617L 145.171 78L 130.816 78L 130.816 6.90625L 149.566 6.90625ZM 221.685 78L 207.329 78L 207.329 6.90625L 221.685 6.90625L 221.685 78ZM 283.452 78L 269.097 78L 248.101 31.3691L 248.101 78L 233.745 78L 233.745 6.90625L 248.101 6.90625L 269.146 53.5859L 269.146 6.90625L 283.452 6.90625L 283.452 78ZM 343.316 69.9434C 340.549 72.9382 337.147 75.2005 333.11 76.7305C 329.107 78.2279 324.712 78.9766 319.927 78.9766C 311.756 78.9766 305.409 76.4538 300.884 71.4082C 296.359 66.3301 294.032 58.957 293.901 49.2891L 293.901 36.4961C 293.901 26.6979 296.034 19.1621 300.298 13.8887C 304.595 8.58268 310.845 5.92969 319.048 5.92969C 326.763 5.92969 332.573 7.83398 336.48 11.6426C 340.418 15.4512 342.697 21.4245 343.316 29.5625L 329.351 29.5625C 328.96 25.0378 328.016 21.9616 326.519 20.334C 325.021 18.6738 322.678 17.8438 319.487 17.8438C 315.614 17.8438 312.798 19.2598 311.04 22.0918C 309.282 24.9238 308.371 29.4323 308.306 35.6172L 308.306 48.5078C 308.306 54.9857 309.266 59.7057 311.187 62.668C 313.14 65.5977 316.33 67.0625 320.757 67.0625C 323.589 67.0625 325.884 66.4928 327.642 65.3535L 328.911 64.4746L 328.911 51.4375L 318.853 51.4375L 318.853 40.5977L 343.316 40.5977L 343.316 69.9434ZM 406.548 59.3477C 406.548 56.4505 405.799 54.2695 404.302 52.8047C 402.837 51.3073 400.151 49.7611 396.245 48.166C 389.116 45.4642 383.989 42.3066 380.864 38.6934C 377.739 35.0475 376.177 30.7507 376.177 25.8027C 376.177 19.8132 378.293 15.0117 382.525 11.3984C 386.789 7.7526 392.193 5.92969 398.735 5.92969C 403.097 5.92969 406.987 6.85742 410.405 8.71289C 413.823 10.5358 416.444 13.1237 418.267 16.4766C 420.122 19.8294 421.05 23.638 421.05 27.9023L 406.743 27.9023C 406.743 24.582 406.027 22.0592 404.595 20.334C 403.195 18.5762 401.161 17.6973 398.491 17.6973C 395.985 17.6973 394.032 18.446 392.632 19.9434C 391.232 21.4082 390.532 23.3939 390.532 25.9004C 390.532 27.8535 391.314 29.6276 392.876 31.2227C 394.439 32.7852 397.206 34.4128 401.177 36.1055C 408.11 38.612 413.14 41.6882 416.265 45.334C 419.422 48.9798 421.001 53.6185 421.001 59.25C 421.001 65.4349 419.032 70.2689 415.093 73.752C 411.154 77.235 405.799 78.9766 399.028 78.9766C 394.439 78.9766 390.256 78.0326 386.48 76.1445C 382.704 74.2565 379.741 71.5547 377.593 68.0391C 375.477 64.5234 374.419 60.373 374.419 55.5879L 388.823 55.5879C 388.823 59.6895 389.621 62.668 391.216 64.5234C 392.811 66.3789 395.415 67.3066 399.028 67.3066C 404.041 67.3066 406.548 64.6536 406.548 59.3477ZM 480.571 48.8496C 480.571 58.3874 478.309 65.793 473.784 71.0664C 469.292 76.3398 463.042 78.9766 455.034 78.9766C 447.059 78.9766 440.793 76.3724 436.235 71.1641C 431.678 65.9232 429.367 58.599 429.302 49.1914L 429.302 37.0332C 429.302 27.2676 431.564 19.6504 436.089 14.1816C 440.614 8.68034 446.896 5.92969 454.937 5.92969C 462.847 5.92969 469.081 8.63151 473.638 14.0352C 478.195 19.4062 480.506 26.9583 480.571 36.6914L 480.571 48.8496ZM 466.167 36.9355C 466.167 30.5228 465.256 25.7539 463.433 22.6289C 461.61 19.5039 458.778 17.9414 454.937 17.9414C 451.128 17.9414 448.312 19.4551 446.489 22.4824C 444.666 25.4772 443.722 30.0508 443.657 36.2031L 443.657 48.8496C 443.657 55.0671 444.585 59.6569 446.441 62.6191C 448.296 65.5488 451.161 67.0137 455.034 67.0137C 458.778 67.0137 461.561 65.5814 463.384 62.7168C 465.207 59.8197 466.135 55.3438 466.167 49.2891L 466.167 36.9355ZM 540.923 48.8496C 540.923 58.3874 538.661 65.793 534.136 71.0664C 529.644 76.3398 523.394 78.9766 515.386 78.9766C 507.411 78.9766 501.144 76.3724 496.587 71.1641C 492.03 65.9232 489.719 58.599 489.653 49.1914L 489.653 37.0332C 489.653 27.2676 491.916 19.6504 496.441 14.1816C 500.965 8.68034 507.248 5.92969 515.288 5.92969C 523.198 5.92969 529.432 8.63151 533.989 14.0352C 538.547 19.4062 540.858 26.9583 540.923 36.6914L 540.923 48.8496ZM 526.519 36.9355C 526.519 30.5228 525.607 25.7539 523.784 22.6289C 521.961 19.5039 519.129 17.9414 515.288 17.9414C 511.48 17.9414 508.664 19.4551 506.841 22.4824C 505.018 25.4772 504.074 30.0508 504.009 36.2031L 504.009 48.8496C 504.009 55.0671 504.937 59.6569 506.792 62.6191C 508.648 65.5488 511.512 67.0137 515.386 67.0137C 519.129 67.0137 521.913 65.5814 523.735 62.7168C 525.558 59.8197 526.486 55.3438 526.519 49.2891L 526.519 36.9355ZM 600.933 78L 586.577 78L 565.581 31.3691L 565.581 78L 551.226 78L 551.226 6.90625L 565.581 6.90625L 586.626 53.5859L 586.626 6.90625L 600.933 6.90625L 600.933 78Z"/>
</defs>
</svg>
