<svg xmlns="http://www.w3.org/2000/svg" xmlns:xlink="http://www.w3.org/1999/xlink" viewBox="0 0 801.37 386.67"><defs><style>.cls-1{fill:none;}.cls-2{clip-path:url(#clip-path);}.cls-3{fill:#fff;}.cls-4{fill:#231f20;}</style><clipPath id="clip-path" transform="translate(-65.7 -24.14)"><rect class="cls-1" width="932.12" height="351.3"/></clipPath></defs><title>Asset 1</title><g id="Layer_2" data-name="Layer 2"><g id="Layer_1-2" data-name="Layer 1"><g class="cls-2"><path class="cls-3" d="M65.7,357.48V24.14H866.76q0,192.13-.08,384.27c0,.69,1.32,2.47-1,2.4V357.52h-684Q123.68,357.52,65.7,357.48ZM812.78,59.38c-.09-.47,0-1.15-.31-1.36-4.62-3.39-9.24-6.78-13.94-10A102.11,102.11,0,0,0,789,41.85c-5.16-2.79-10-6.33-16.12-7-3.68-.4-7.38-.82-11-1.46-3-.54-3.55-.37-4.66,2.77,11.73,1.08,11.73,1.08,11.6,2.28,2.3.65,4.55,1.23,6.76,1.94a79.18,79.18,0,0,1,9.44,3.3c3.51,1.65,7.18,3.37,10,5.91,1.86,1.67,3.34,3.57,5.91,3.89a17.33,17.33,0,0,1,10.17,5,6.45,6.45,0,0,0,1.89.88,4.91,4.91,0,0,0,.53,1.07c1.67,2,3.82,3.64,4.55,6.83l-6.78-4.68a5.7,5.7,0,0,1-3.23-.84c-.66-.51-.79-1.69-1.23-2.73-1.94.48-1.94.47-4.51-1.06a3.91,3.91,0,0,0-1.48-.56c-3.84-.44-7-2.25-10-4.54-1.68-1.26-3.93-2.54-5.89-2.5-4,.1-7.33-1.21-10.75-2.89l2.34.31.24-.73-4.79-2.11c-1,3.06-3.14,1.51-4.75,1.37a27.5,27.5,0,0,1-5.63-1.33c-.5-.16-.82-.9-1.23-1.38-2.32.37-4.86,2.32-6.64-.55-1.5.44-3.31,1.57-4.06,1.08-2.92-1.92-.35-4,.18-5.55,1.28-.36,2.31-.6,3.29-1,.15-.06.05-.77.07-1.18l-2.5.17a14.57,14.57,0,0,0-2.13-1.6,17.21,17.21,0,0,0-2.7-.89l.19-.65,5.93.37v-.94c-6.23,0-12.45,0-18.68,0a2.57,2.57,0,0,0-.94.42c-1.35.66-2.66,1.75-4.06,1.88-1.84.17-2.84.58-2.91,2.56,0,.41-.71.8-1.09,1.19-.37-.44-1-.87-1-1.31a28.36,28.36,0,0,1,.44-3.72,6.38,6.38,0,0,0-1.25,0c-12.95,2.51-26.2,3.74-38.39,9.37a23.2,23.2,0,0,1-4.24,1.25c-4.34,1.06-8.72,2-13,3.16a58,58,0,0,0-7.2,2.73c-11.15,4.76-22.41,9.27-33.36,14.45-6.36,3-12,7.45-18.3,10.68Q588.22,85.65,568.2,95.14c-8,3.83-16.25,7.33-24.51,10.64a133.43,133.43,0,0,1-13.91,4.28c-12.27,3.41-24.48,7.13-36.89,10a178.45,178.45,0,0,1-26.18,3.79c-10.07.76-20.17.76-30,3.82-6.65,2.08-13.37,3.93-20.12,5.67a96.91,96.91,0,0,1-20.89,3.45c-8.49.29-17.11.44-25.4,2-14,2.68-27.76,6.32-41.56,9.81-7.7,1.95-15.37,4.13-22.86,6.75A128.13,128.13,0,0,0,288.42,163c-10.24,5.41-20.7,10.6-30.2,17.16-7.83,5.4-14.53,12.49-21.48,19.09-17.15,16.3-36.1,29.71-58.36,38.28-24.18,9.31-46.75,21.8-68.46,35.85-2.15,1.39-5.42,2-5.75,5.53,0,.23-1,.39-1.57.54s-1.07,0-1.39.3c-6.73,5.78-13.81,11.23-18.87,18.67a5,5,0,0,0-.73,3.93c.73,2,2.72,1.6,4.38,1.09,5.93-1.8,11.9-3.48,17.74-5.52,10-3.51,19.79-7.91,30-10.76,18.75-5.23,37.73-9.67,56.64-14.3,5.37-1.31,10.87-2.13,16.7-3.25-4.85,5.25-9.23,10.24-13.89,15-8,8.06-15.52,16.54-25.24,22.79-3.59,2.31-6.33,6.14-9,9.64-1.84,2.44-.51,4.42,2.57,4,5.88-.76,11.87-1.31,17.52-3,6.08-1.79,11.88-4.58,17.67-7.24,21-9.64,39.71-22.08,51.69-42.69a5.34,5.34,0,0,1,3.16-2.49,142.94,142.94,0,0,1,16.88-2c6.27-.25,12.57.27,18.85.43l44,1.09c.49,0,1,.07,1.82.14-.71.92-1.15,1.56-1.65,2.14a117.89,117.89,0,0,0-17.74,28.29c-5.22,11.41-10,23.08-18.52,32.73-2.78,3.15-4.34,7.46-6.08,11.41-.63,1.43-.14,3.35-.16,5,1.63-.37,3.56-.31,4.85-1.19,8.73-5.94,17.63-11.7,25.89-18.25,13.06-10.35,24.16-22.76,34.91-35.47,7.29-8.62,13.34-17.92,16.52-28.85a3.3,3.3,0,0,1,3-2.73A166.14,166.14,0,0,0,411,247c14.6-6.3,28.5-13.87,39.71-25.31,7.75-7.91,14.88-16.47,21.84-25.1,6-7.39,12.17-14.49,20.41-19.29,16.32-9.51,32.61-19.11,49.33-27.89,30.29-15.91,59.8-33,87.39-53.3,23.08-16.94,48.9-27.76,76.21-35.41,10.17-2.85,20.66-4,31-1.28a154.54,154.54,0,0,1,22,7.64c7,3,13.88,5.91,21.46,6.59,12,1.07,24,1.83,36,2.76,3.22.25,5.19-1.07,6.82-3.92,1.48-2.58.05-4-1.19-5.63C819.59,63.62,817.13,60.31,812.78,59.38ZM769.45,43.83c-5.06-3.7-5.06-3.7-7-2.6C765,44.18,767.55,45.21,769.45,43.83Z" transform="translate(-65.7 -24.14)"/><path d="M65.7,357.48q58,0,116,0h684v53.29H65.7Q65.7,384.14,65.7,357.48ZM148,383.1c0,2.46-.08,4.67,0,6.87.21,4.47,2.74,6.25,7.22,5.09v-2.56c-3.83-1.35-4.5-3.29-3.25-9.37,4.24-.47,4.27-.5,3.29-3.76l-3.71-.2v-5.4c-3.42.49-3.87,2.72-3.62,5.36h-5.36v-5.61c-2.29.86-4.29,1.51-3.83,4.41.06.4-.66.87-.77,1.37a10.58,10.58,0,0,0-.4,3.41c.13,1,1,2,1.17,3,.22,1.57,0,3.2.11,4.79.39,4,3.16,5.75,7.18,4.5v-2.54c-3.82-1.36-4.28-2.75-3.15-9.36Zm-36.23,12.29c0-3.55.11-6.9,0-10.25-.1-2.26,1-2.78,2.89-2.63s2.68,1.47,2.69,3.27c0,3.17,0,6.33,0,9.58h3.64c0-3.84.23-7.55-.07-11.23-.29-3.52-3.19-5.51-6.79-5.16-.68.07-1.36.2-2.37.35v-5.77h-3.53v21.85Zm125.4-6c3.4,2,3.92,7.82,9.45,5.69l-6.35-8.4,6-7c-5.18-2-6.26,3-9.46,5.11V373.62h-3.53v21.67h3.48ZM169.7,389c0-1.6,0-2.75,0-3.9-.06-3.86-2.5-6.21-6.44-6.2s-6.35,2.27-6.4,6.17c0,1.51,0,3,0,4.53,0,3.41,1.44,5.36,4.4,6.1a6.57,6.57,0,0,0,7.83-3.24c-2.08-1.54-2-1.4-4.24-.62a4.94,4.94,0,0,1-3.27-.16c-.56-.24-.72-1.46-1.25-2.68Zm-47-9.64c0,4-.29,7.76.13,11.43a6.54,6.54,0,0,0,2.89,4.3c2.85,1.62,6,.83,9-.29a1.55,1.55,0,0,0,.81-1.15c.06-4.75,0-9.51,0-14.27h-3.76c0,3.64,0,7.15,0,10.67,0,2.33-.87,3-3.09,2.49a2.72,2.72,0,0,1-2.26-3.09c.06-3.34,0-6.67,0-10.09Zm69.47.93c-3.08-1.51-6.17-2.16-9-.36a7,7,0,0,0-2.6,4.46c-.29,1.93,1.06,3.5,3.13,4.05a24.35,24.35,0,0,1,3.09.7,8.65,8.65,0,0,1,1.93,1.55c-.72.5-1.42,1.4-2.16,1.43a45,45,0,0,1-5.66-.43l-1.2,2.83a11.87,11.87,0,0,0,9.46.76,4.68,4.68,0,0,0,3.37-4.88,4.35,4.35,0,0,0-3.64-4.32,11.76,11.76,0,0,1-2.58-.57,9.87,9.87,0,0,1-2-1.74c.8-.42,1.59-1.18,2.4-1.19a22.9,22.9,0,0,1,4.27.74ZM95,391.77l-1.23,2.78c3.28,1.52,6.37,1.91,9.52.76a4.68,4.68,0,0,0,3.31-4.92,4.31,4.31,0,0,0-3.68-4.27,21.59,21.59,0,0,1-3.08-.75c-.57-.23-1-.87-1.45-1.33.55-.48,1.11-1.37,1.66-1.36a40.09,40.09,0,0,1,5,.59l1.08-2.76c-3.1-1.83-6.39-2-9-.67a4.58,4.58,0,0,0-2.6,4.57,4.06,4.06,0,0,0,3.19,4.07,22.24,22.24,0,0,1,3.33.83c.66.3,1.1,1.12,1.63,1.71-.62.4-1.23,1.14-1.85,1.15C99.11,392.19,97.27,391.94,95,391.77Zm133.81-1.47c-.77.66-1.34,1.55-2,1.6-1.22.09-3.48-.14-3.54-.53a29.85,29.85,0,0,1-.27-7.47c0-.51,1.88-1.25,2.82-1.17s1.93,1,3.11,1.75l2.59-1a6.27,6.27,0,0,0-7.28-4.43c-3.52.52-5.28,2.36-5.4,5.77-.06,1.77-.05,3.55,0,5.32a5.53,5.53,0,0,0,5.11,5.76c3.74.51,6.44-1,7.52-4.38Zm-29.94-16.71c-2.51.81-4.16,1.68-3.7,4.35.07.39-.86.86-1,1.38a12.61,12.61,0,0,0-.44,3.23c2.1.53,1.41,2.15,1.47,3.43s0,2.65,0,4c.08,4.42,2.66,6.3,7,5.1v-2.56c-3.58-1.35-4.18-3.2-3-9.38l3.35-.34v-3.35l-3.72-.33Zm-19,8.83-.16-3.14c-4.22-.74-7.63.82-7.87,3.85-.32,4-.08,8.09-.08,12.14H175a4.5,4.5,0,0,0,.17-.74q0-3.6,0-7.19C175.2,383.23,175.59,382.8,179.9,382.43Zm34.73,4.08-1,.41c1.17,4.27-.92,5.42-4.29,4.94v3.57a31.38,31.38,0,0,0,4.64,0c2.71-.42,4.31-3.45,3.45-7C217.26,387.58,215.61,387.12,214.63,386.51Zm-2.38-7c-7.15-1.38-9.42,2.59-7.86,8.23h3.4c-.84-3.77.58-5.52,4.46-4.64ZM762.53,379l-1.89-4.47-.68.21v6.06l.48,0,.4-3.2,1.64,3.93,1.72-4,.4,3.25.44-.08v-6l-.7-.13Zm40.8-1.08-2.14-2.66c-.53.86-1.46,1.7-1.49,2.58s.81,1.87,1.27,2.81Zm-28-1.93.25-.83c-1-.12-2.89-.57-3-.29a13,13,0,0,0-1,4.78c0,.45,1.73,1.43,2.38,1.23s1.29-1.47,1.91-2.28L774,377.43c.37,1,.75,1.6.68,2.11,0,.28-.92.75-1.24.63a2,2,0,0,1-1.05-1.23C771.72,376,772.59,375.2,775.34,376ZM766,380.58l.42.69c1.28-3.25,2.71-1.84,4.34-.65l-1.94-6.07H768Zm19.24.91c1.56-.66,3.35-.86,3.75-1.71a5.39,5.39,0,0,0-.17-4.21c-.39-.77-2.14-.86-3.58-1.35Zm-5.57-3.84-1.85-1,2.29-1.91h-3.16v6.07h3l-2.14-1.56Zm-530,.27c-1,1.25-2,2-1.94,2.6s1.09,1.32,1.7,2c.63-.61,1.65-1.14,1.78-1.84S250.47,379.23,249.68,377.92Zm565.8,1.1c.76-1.05,1.62-1.73,1.6-2.38s-1.09-1-1.7-1.52a6.89,6.89,0,0,0-1.15,2.07C814.17,377.62,814.88,378.18,815.48,379Zm-3,15.07c.83-1,1.64-1.6,1.64-2.17s-.74-1.3-1.34-1.59c-.28-.13-1.43.65-1.41,1A10.49,10.49,0,0,0,812.47,394.09Zm8.91-16.1-2.45-2.27C819.14,378.05,819.24,378.15,821.38,378Z" transform="translate(-65.7 -24.14)"/><path d="M812.78,59.38c4.34.93,6.81,4.24,9.29,7.46,1.24,1.61,2.67,3.06,1.19,5.63-1.63,2.85-3.6,4.17-6.82,3.92-12-.93-24-1.69-36-2.76-7.58-.67-14.51-3.56-21.46-6.59a154.54,154.54,0,0,0-22-7.64c-10.36-2.74-20.85-1.57-31,1.28-27.31,7.65-53.13,18.47-76.21,35.41-27.59,20.25-57.1,37.39-87.39,53.3-16.72,8.78-33,18.37-49.33,27.89-8.23,4.8-14.44,11.91-20.41,19.29-7,8.63-14.09,17.19-21.84,25.1-11.21,11.44-25.11,19-39.71,25.31a166.14,166.14,0,0,1-37,11.41,3.3,3.3,0,0,0-3,2.73c-3.18,10.93-9.22,20.23-16.52,28.85-10.75,12.71-21.84,25.11-34.91,35.47-8.26,6.55-17.16,12.31-25.89,18.25-1.29.88-3.22.82-4.85,1.19,0-1.7-.47-3.62.16-5,1.74-3.95,3.3-8.26,6.08-11.41,8.52-9.65,13.29-21.32,18.52-32.73a117.89,117.89,0,0,1,17.74-28.29c.5-.58.94-1.21,1.65-2.14-.84-.06-1.33-.12-1.82-.14l-44-1.09c-6.29-.16-12.58-.68-18.85-.43a142.94,142.94,0,0,0-16.88,2,5.34,5.34,0,0,0-3.16,2.49c-12,20.61-30.7,33-51.69,42.69-5.79,2.66-11.59,5.45-17.67,7.24-5.64,1.66-11.64,2.21-17.52,3-3.08.4-4.4-1.58-2.57-4,2.64-3.5,5.38-7.33,9-9.64,9.72-6.24,17.27-14.72,25.24-22.79,4.66-4.71,9-9.71,13.89-15-5.84,1.12-11.33,1.93-16.7,3.25-18.92,4.63-37.89,9.07-56.64,14.3-10.2,2.85-20,7.25-30,10.76-5.84,2-11.82,3.72-17.74,5.52-1.66.5-3.65.9-4.38-1.09a5,5,0,0,1,.73-3.93c5.06-7.44,12.14-12.89,18.87-18.67.32-.27.93-.18,1.39-.3s1.55-.31,1.57-.54c.33-3.51,3.6-4.14,5.75-5.53,21.71-14.05,44.28-26.54,68.46-35.85,22.25-8.57,41.2-22,58.36-38.28,7-6.6,13.65-13.69,21.48-19.09,9.49-6.55,20-11.74,30.2-17.16a128.13,128.13,0,0,1,17.49-7.65c7.49-2.62,15.16-4.8,22.86-6.75,13.8-3.49,27.59-7.13,41.56-9.81,8.3-1.59,16.91-1.75,25.4-2a96.91,96.91,0,0,0,20.89-3.45c6.75-1.73,13.47-3.59,20.12-5.67,9.79-3.06,19.89-3.05,30-3.82A178.45,178.45,0,0,0,492.89,120c12.41-2.84,24.62-6.55,36.89-10a133.43,133.43,0,0,0,13.91-4.28C552,102.47,560.16,99,568.2,95.14q20-9.53,39.72-19.63c6.27-3.23,11.94-7.67,18.3-10.68,10.95-5.18,22.21-9.7,33.36-14.45a58,58,0,0,1,7.2-2.73c4.3-1.19,8.69-2.1,13-3.16A23.2,23.2,0,0,0,684,43.25c12.19-5.63,25.45-6.86,38.39-9.37a6.38,6.38,0,0,1,1.25,0,28.36,28.36,0,0,0-.44,3.72c0,.44.67.87,1,1.31.38-.4,1.08-.78,1.09-1.19.07-2,1.07-2.39,2.91-2.56,1.4-.13,2.71-1.22,4.06-1.88a2.57,2.57,0,0,1,.94-.42c6.23,0,12.45,0,18.68,0v.94L746,33.41l-.19.65a17.21,17.21,0,0,1,2.7.89,14.57,14.57,0,0,1,2.13,1.6l2.5-.17c0,.41.08,1.12-.07,1.18-1,.38-2,.62-3.29,1-.53,1.57-3.1,3.64-.18,5.55.75.49,2.55-.64,4.06-1.08,1.77,2.87,4.32.92,6.64.55.41.48.73,1.23,1.23,1.38a27.5,27.5,0,0,0,5.63,1.33c1.6.14,3.78,1.7,4.75-1.37L776.71,47l-.24.73-2.34-.31c3.41,1.68,6.79,3,10.75,2.89,2,0,4.21,1.23,5.89,2.5,3.05,2.29,6.2,4.1,10,4.54a3.91,3.91,0,0,1,1.48.56c2.57,1.52,2.57,1.53,4.51,1.06.43,1,.57,2.22,1.23,2.73a5.7,5.7,0,0,0,3.23.84L818,67.22c-.74-3.2-2.88-4.86-4.55-6.83a4.93,4.93,0,0,1-.53-1.07ZM463.64,172.73l-.34-.36-1.79,2.42c-1-1.16,1.35-3.84-2-4.12v3.77l-2.2-4.45-.6,3.64c-2.51-1-4.57-1-5.45,2-.11.37-.72.56-.92.93s-.69,1.5-.52,1.64c2.64,2.22-.25,4-.19,5.85-2.17.72-1.83-5.44-4.81-1.5-2.22,2.94-2.11,3-.12,4.48,1.14-1.48,4.32-1.35,6.06.7-3.33,1.06-6.39,1.87-9,1.1l-4.48,9.25c.89.56,2.1,1.72.71,3.53-1,1.33-2.19,2.54-3.42,4l1.71.16a29.82,29.82,0,0,1-2.24,2c-1.14.84-2.44,1.48-3.48,2.42-.34.31-.13,1.25-.14,1.9,0,0,.32,0,.52,0l.27-1.48c4.38.54,6.23-2.54,8.52-5.31,2,2.42,2.77-.85,4.75-1.13L442,207.06c.43.29.95.79,1.09.7a24.8,24.8,0,0,0,4.28-3.06c.82-.82,1.13-2.17,1.9-3.76l1.73-.62-.33-2.22a11,11,0,0,0,2.76,0,7.54,7.54,0,0,0,2.31-1.33,9,9,0,0,0,2.49-2.2c1.72-2.87,3.22-5.86,4.82-8.8.11-.21.36-.34.23-.22,3.39,1.38,2.43-2,3-2.17a4.93,4.93,0,0,1-.86-1.94c-.13-3-1.19-4.12-4.38-2.38ZM349.28,207.86l-3.27-3.7-1,.46c.32,1.15.63,2.3,1,3.44.19.63.7,1.31.58,1.86-.33,1.54.08,2.12,1.7,2.08a2.74,2.74,0,0,1,1.68,1c1.27,1.36,2.39,2.86,3.66,4.23a4.58,4.58,0,0,0,6,.94c.42-.29.6-.92.89-1.4-.57-.22-1.17-.69-1.7-.62-2.4.32-6.23-2.28-7.16-5.39-.72-2.39,1.92-2.77,3.08-4,.16-.17.48-.18.9-.33.8.87,1.66,1.76,2.46,2.68s1.54,2,2.39,2.86c1.83,2,4.92,2.29,6.39.63a2.37,2.37,0,0,0,.35-1.82c-.05-.25-1-.52-1.47-.44-2.4.35-7.41-3.38-7.42-5.69a1.86,1.86,0,0,1,.77-1.27c1.93-1.33,1.21-2.35-.2-3.42l-2.75,2.16-3.23-3.72-.95.31c.18,1.22,0,2.6.61,3.61.82,1.48.66,2.47-.58,3.44Zm77.35-62.45c-4.38,2.39-2.32,6.28-3.57,9.53l-6.81-8.54-2.6,1.86,13,15.9c2.24-.83,2.42-1.87,1.11-3.46a18.19,18.19,0,0,1-1.67-3l.65-.54c1.53.34,3.07.67,4.6,1s3.32.83,4.07-1.41c-.23-.17-.35-.33-.51-.37-2.13-.61-4.23-1.31-6.4-1.75a2.43,2.43,0,0,1-2.22-3C426.37,149.81,426.46,148,426.63,145.42ZM377,201.77l-.7-.7c-.76.69-1.56,1.35-2.27,2.09s-1.1,1.88-1.85,2.1-2-.28-3.07-.47a7.51,7.51,0,0,1,1-2.49,15.88,15.88,0,0,1,3.5-2.82c1.59-.94,1.31-1.87.35-3a16.34,16.34,0,0,0-2.16-2.33c-2.18-1.69-5.18-1.21-7.72,1.12a4.73,4.73,0,0,0-.82,6.65,34.87,34.87,0,0,0,4.3,5,4.36,4.36,0,0,0,5.84.57C375.53,206.17,377.17,204.48,377,201.77Zm-41.58,36c-2.08-2.58-4.05-5.09-6.11-7.53-1.07-1.27-1-2.28.14-3.45,1.69-1.66,3.4-1.73,5,.12s3,3.77,4.62,5.51c.49.52,1.55.49,2.35.72a6.31,6.31,0,0,0-.37-2.25,30.63,30.63,0,0,0-2.47-3.13c-5-6.3-5.8-6.41-12.32-1.52l-3.49-3.92c-1.81.76-2.08,1.6-1,2.95q5.33,6.49,10.54,13.07C333.57,239.87,334.36,239.22,335.39,237.77Zm51.27-41.65c2.83-1.3,5.34-2.59,6.87-5.09a4.55,4.55,0,0,0-.52-5.69c-1.51-1.72-3.32-1.34-5.13-.54a17,17,0,0,1-2.64,1.25c-.66.16-1.78.08-2.08-.34a2.24,2.24,0,0,1,.05-2.16,28.18,28.18,0,0,1,2.88-2.25,5.82,5.82,0,0,0,.92-1.58c-.58-.19-1.39-.73-1.7-.53a23.05,23.05,0,0,0-4.64,3.75c-1.27,1.5-1,3.33.41,4.85a3.76,3.76,0,0,0,4.81,1,11,11,0,0,1,2.67-1.16,6.74,6.74,0,0,1,2.35.48c-.22.79-.19,1.85-.71,2.31a44.77,44.77,0,0,1-4.48,3.12Zm-63.59,51.7a44.49,44.49,0,0,0,5.5-3.85,4.31,4.31,0,0,0,.51-6c-1.62-2-3.58-2-5.72-.94a9.44,9.44,0,0,1-2.44,1c-.6.1-1.64-.08-1.84-.46a2.34,2.34,0,0,1,.07-2.13,30.67,30.67,0,0,1,2.89-2.24,5.49,5.49,0,0,0,.88-1.58c-.65-.19-1.55-.74-1.92-.5a17.84,17.84,0,0,0-4.27,3.45,4.06,4.06,0,0,0,5.1,6,9.41,9.41,0,0,1,2.39-1.13,9.31,9.31,0,0,1,2.62.3c-.16.89-.05,2-.56,2.62a9.21,9.21,0,0,1-3,2.15C321.75,245.26,321.76,246.17,323.08,247.82Zm14.34-29.91c-2.12,1.33-2.18,1.37-1,3,1.32,1.77,2.75,3.47,4.17,5.17s3.23,3.74,5.57,2.59,4.06-3.17,6-4.92c.24-.22.09-1.24-.22-1.64-2.58-3.34-5.24-6.63-7.84-9.89-1.89.91-2.09,1.81-.86,3.19,1.76,2,3.39,4.09,5,6.17,1.51,1.92,1.18,3.31-1,4.39-1.85.92-3.23.19-4.4-1.27C341.05,222.41,339.23,220.15,337.42,217.91Zm79.52-46.8c2.69-.05,5.91-2.64,6.26-5.26.1-.77-.54-1.63-.85-2.46-.66.53-1.35,1-2,1.6-.17.15-.07.62-.23.73-1.08.75-2.94,2.26-3.19,2a33.58,33.58,0,0,1-5.18-6c-.19-.28,1.52-1.95,2.48-2.84.3-.28,1.13.06,1.52-.18a12.16,12.16,0,0,0,1.78-1.65c-.56-.44-1.07-1.14-1.7-1.28-2.66-.59-6,1.51-6.91,4.25C407.78,163.42,413.4,171.19,416.94,171.11Zm-28.78-.67-1,.3c.44,2.08.86,4.16,1.34,6.23a1.8,1.8,0,0,0,.6.84c.17.15.5.12.71.24a9.7,9.7,0,0,1,2.42,1.49c1.32,1.42,2.35,3.11,3.67,4.52a4.55,4.55,0,0,0,6,.42c.49-.4,1-1.53.79-1.86a2.51,2.51,0,0,0-2-.93c-2,.15-7.08-3.46-7.32-5.46a2.25,2.25,0,0,1,.23-1c.36-.93.74-1.85,1.11-2.77l-3.22,1a5.36,5.36,0,0,1-.6.07c-.31-.37-.75-.92-1.22-1.44S388.69,171,388.16,170.44Zm-10.89,14.74c-.9.49-1.22.63-1.51.83-2,1.43-3.16,4.47-1.82,6.59a69.66,69.66,0,0,0,6.3,8c.25.29,1.46,0,2-.31.27-.18.23-1.31-.06-1.74a43,43,0,0,0-4-5.25c-1.7-1.8-2.31-3.42-.57-5.56C377.91,187.3,377.42,186.24,377.27,185.19Zm32.55-16.6c-1.57.75-2.28,1.64-1,3.09s1.2,2.48-.41,3.48c-1.13.7-1.49,1.76-.32,2.51a2.72,2.72,0,0,0,2.55-.25C414.07,174.35,413.85,172.3,409.81,168.59Zm-7.15-.59c-.66-1.88-1.49-2.05-2.86-1a5,5,0,0,0-.27,8.19,2.26,2.26,0,0,0,2-.06,1.79,1.79,0,0,0,.22-1.69C399.4,171.2,400.47,169.55,402.67,168Zm-35,92.43-1.83,6.63.64.17C367.37,265.1,369.93,263.43,367.64,260.44Zm102-73.48-.81-.57-2.8,4.08.77.54Z" transform="translate(-65.7 -24.14)"/><path d="M812.78,59.38l.16-.06a6.45,6.45,0,0,1-1.89-.88,17.33,17.33,0,0,0-10.17-5c-2.57-.32-4-2.23-5.91-3.89-2.84-2.54-6.5-4.26-10-5.91a79.18,79.18,0,0,0-9.44-3.3c-2.21-.71-4.46-1.28-6.76-1.94.14-1.2.14-1.2-11.6-2.28,1.11-3.15,1.62-3.31,4.66-2.77,3.65.65,7.34,1.06,11,1.46,6.11.66,11,4.21,16.12,7A102.11,102.11,0,0,1,798.54,48c4.71,3.27,9.33,6.65,13.94,10C812.76,58.23,812.69,58.92,812.78,59.38Z" transform="translate(-65.7 -24.14)"/><path d="M769.45,43.83c-1.9,1.38-4.48.35-7-2.6C764.39,40.14,764.39,40.14,769.45,43.83Z" transform="translate(-65.7 -24.14)"/><path class="cls-3" d="M148,383.1h-5.1c-1.14,6.61-.67,8,3.15,9.36V395c-4,1.25-6.79-.47-7.18-4.5-.16-1.59.11-3.22-.11-4.79-.14-1-1-2-1.17-3a10.58,10.58,0,0,1,.4-3.41c.11-.49.83-1,.77-1.37-.45-2.9,1.54-3.55,3.83-4.41v5.61h5.36c-.26-2.64.2-4.87,3.62-5.36v5.4l3.71.2c1,3.26.95,3.29-3.29,3.76-1.24,6.07-.57,8,3.25,9.37v2.56c-4.48,1.15-7-.63-7.22-5.09C147.87,387.78,148,385.57,148,383.1Z" transform="translate(-65.7 -24.14)"/><path class="cls-3" d="M111.72,395.39h-3.56V373.54h3.53v5.77c1-.15,1.68-.28,2.37-.35,3.6-.35,6.5,1.64,6.79,5.16.3,3.67.07,7.39.07,11.23h-3.64c0-3.24,0-6.41,0-9.58,0-1.8-.63-3.11-2.69-3.27s-3,.38-2.89,2.63C111.84,388.49,111.72,391.84,111.72,395.39Z" transform="translate(-65.7 -24.14)"/><path class="cls-3" d="M237.13,389.38l-.38,5.92h-3.48V373.62h3.53v11.14c3.19-2.06,4.28-7.09,9.46-5.11l-6,7,6.35,8.4C241,397.2,240.53,391.4,237.13,389.38Z" transform="translate(-65.7 -24.14)"/><path class="cls-3" d="M169.7,389h-9.37c.53,1.22.68,2.44,1.25,2.68a4.94,4.94,0,0,0,3.27.16c2.21-.77,2.16-.91,4.24.62a6.57,6.57,0,0,1-7.83,3.24c-3-.74-4.36-2.69-4.4-6.1,0-1.51,0-3,0-4.53.05-3.91,2.41-6.17,6.4-6.17s6.38,2.34,6.44,6.2C169.71,386.29,169.7,387.44,169.7,389ZM166.47,386c-.75-1.29-1.07-2.6-1.83-3a3.91,3.91,0,0,0-3.15.24c-.61.35-.67,1.66-1,2.72Z" transform="translate(-65.7 -24.14)"/><path class="cls-3" d="M122.74,379.4h3.76c0,3.42,0,6.75,0,10.09a2.72,2.72,0,0,0,2.26,3.09c2.23.52,3.08-.15,3.09-2.49,0-3.52,0-7,0-10.67h3.76c0,4.76,0,9.52,0,14.27a1.55,1.55,0,0,1-.81,1.15c-3,1.12-6.13,1.91-9,.29a6.54,6.54,0,0,1-2.89-4.3C122.45,387.16,122.74,383.42,122.74,379.4Z" transform="translate(-65.7 -24.14)"/><path class="cls-3" d="M192.21,380.33l-1.13,3a22.9,22.9,0,0,0-4.27-.74c-.8,0-1.6.77-2.4,1.19a9.87,9.87,0,0,0,2,1.74,11.76,11.76,0,0,0,2.58.57,4.35,4.35,0,0,1,3.64,4.32,4.68,4.68,0,0,1-3.37,4.88,11.87,11.87,0,0,1-9.46-.76l1.2-2.83a45,45,0,0,0,5.66.43c.74,0,1.44-.93,2.16-1.43a8.65,8.65,0,0,0-1.93-1.55,24.35,24.35,0,0,0-3.09-.7c-2.07-.55-3.42-2.13-3.13-4.05a7,7,0,0,1,2.6-4.46C186,378.16,189.13,378.82,192.21,380.33Z" transform="translate(-65.7 -24.14)"/><path class="cls-3" d="M95,391.77c2.25.17,4.09.42,5.92.39.62,0,1.24-.75,1.85-1.15-.54-.59-1-1.41-1.63-1.71a22.24,22.24,0,0,0-3.33-.83,4.06,4.06,0,0,1-3.19-4.07,4.58,4.58,0,0,1,2.6-4.57c2.56-1.36,5.86-1.15,9,.67l-1.08,2.76a40.09,40.09,0,0,0-5-.59c-.55,0-1.11.88-1.66,1.36.48.46.88,1.1,1.45,1.33a21.59,21.59,0,0,0,3.08.75,4.31,4.31,0,0,1,3.68,4.27,4.68,4.68,0,0,1-3.31,4.92c-3.15,1.15-6.24.76-9.52-.76Z" transform="translate(-65.7 -24.14)"/><path class="cls-3" d="M228.83,390.3l2.7,1.18c-1.09,3.37-3.79,4.89-7.52,4.38a5.53,5.53,0,0,1-5.11-5.76c-.05-1.77-.06-3.55,0-5.32.12-3.4,1.88-5.25,5.4-5.77a6.27,6.27,0,0,1,7.28,4.43l-2.59,1c-1.18-.71-2.11-1.66-3.11-1.75s-2.77.66-2.82,1.17a29.85,29.85,0,0,0,.27,7.47c.06.39,2.32.61,3.54.53C227.49,391.86,228.06,391,228.83,390.3Z" transform="translate(-65.7 -24.14)"/><path class="cls-3" d="M198.89,373.59v5.51l3.72.33v3.35l-3.35.34c-1.13,6.18-.53,8,3,9.38v2.56c-4.39,1.19-7-.69-7-5.1,0-1.33,0-2.66,0-4s.63-2.89-1.47-3.43a12.61,12.61,0,0,1,.44-3.23c.13-.52,1.05-1,1-1.38C194.73,375.27,196.38,374.4,198.89,373.59Z" transform="translate(-65.7 -24.14)"/><path class="cls-3" d="M179.9,382.43c-4.31.37-4.7.81-4.71,4.91q0,3.6,0,7.19a4.5,4.5,0,0,1-.17.74h-3.18c0-4-.24-8.11.08-12.14.24-3,3.66-4.58,7.87-3.85Z" transform="translate(-65.7 -24.14)"/><path class="cls-3" d="M214.63,386.51c1,.62,2.63,1.08,2.82,1.88.85,3.54-.74,6.57-3.45,7a31.38,31.38,0,0,1-4.64,0v-3.57c3.37.47,5.46-.67,4.29-4.94Z" transform="translate(-65.7 -24.14)"/><path class="cls-3" d="M212.25,379.54v3.59c-3.89-.88-5.3.87-4.46,4.64h-3.4C202.84,382.13,205.1,378.17,212.25,379.54Z" transform="translate(-65.7 -24.14)"/><path class="cls-3" d="M762.53,379l1.8-4.44.7.13v6l-.44.08-.4-3.25-1.72,4-1.64-3.93-.4,3.2-.48,0v-6.06l.68-.21Z" transform="translate(-65.7 -24.14)"/><path d="M803.32,377.92,801,380.64c-.46-.94-1.29-1.89-1.27-2.81s1-1.72,1.49-2.58Z" transform="translate(-65.7 -24.14)"/><path class="cls-3" d="M775.34,376c-2.75-.78-3.62,0-2.94,2.95a2,2,0,0,0,1.05,1.23c.32.12,1.2-.35,1.24-.63.07-.51-.31-1.07-.68-2.11l1.83,1.17c-.62.8-1.12,2-1.91,2.28s-2.39-.78-2.38-1.23a13,13,0,0,1,1-4.78c.11-.27,2,.18,3,.29Z" transform="translate(-65.7 -24.14)"/><path class="cls-3" d="M766,380.58l2-6h.81l1.94,6.07c-1.64-1.18-3.06-2.59-4.34.65Z" transform="translate(-65.7 -24.14)"/><path class="cls-3" d="M785.21,381.49v-7.28c1.45.5,3.19.58,3.58,1.35a5.39,5.39,0,0,1,.17,4.21C788.55,380.63,786.76,380.83,785.21,381.49Zm.39-5.62,1.3,4.28c.48-.57,1.32-1.1,1.38-1.72C788.41,377.1,788.85,375.18,785.6,375.87Z" transform="translate(-65.7 -24.14)"/><path class="cls-3" d="M779.64,377.65l-1.87,1.57,2.14,1.56h-3v-6.07h3.16l-2.29,1.91Z" transform="translate(-65.7 -24.14)"/><path class="cls-3" d="M249.68,377.92c.79,1.31,1.65,2.12,1.53,2.74s-1.15,1.23-1.78,1.84c-.61-.65-1.64-1.27-1.7-2S248.69,379.17,249.68,377.92Z" transform="translate(-65.7 -24.14)"/><path d="M815.48,379c-.61-.84-1.32-1.4-1.25-1.83a6.89,6.89,0,0,1,1.15-2.07c.6.51,1.68,1,1.7,1.52S816.24,378,815.48,379Z" transform="translate(-65.7 -24.14)"/><path d="M812.47,394.09a10.49,10.49,0,0,1-1.11-2.78c0-.32,1.13-1.11,1.41-1,.6.28,1.34,1,1.34,1.59S813.3,393.06,812.47,394.09Z" transform="translate(-65.7 -24.14)"/><path class="cls-3" d="M821.37,378c-2.14.17-2.24.07-2.45-2.27Z" transform="translate(-65.7 -24.14)"/><path class="cls-3" d="M463.64,172.73,461,179c3.19-1.75,4.25-.62,4.38,2.38a4.93,4.93,0,0,0,.86,1.94c-.52.16.44,3.55-3,2.17.13-.12-.12,0-.23.22-1.6,2.94-3.11,5.93-4.82,8.8a9,9,0,0,1-2.49,2.2,7.54,7.54,0,0,1-2.31,1.33,11,11,0,0,1-2.76,0l.33,2.22-1.73.62c-.77,1.59-1.08,2.93-1.9,3.76a24.8,24.8,0,0,1-4.28,3.06c-.14.09-.65-.41-1.09-.7l2.58-2.89c-2,.29-2.74,3.55-4.75,1.13-2.28,2.77-4.14,5.86-8.52,5.31L431,212.1c-.2,0-.52,0-.52,0,0-.65-.21-1.59.14-1.9,1-.93,2.35-1.58,3.48-2.42a29.82,29.82,0,0,0,2.24-2l-1.71-.16c1.24-1.42,2.41-2.63,3.42-4,1.39-1.81.18-3-.71-3.53l4.48-9.25c2.57.77,5.63,0,9-1.1-1.75-2.05-4.92-2.17-6.06-.7-2-1.46-2.1-1.54.12-4.48,3-3.93,2.64,2.22,4.81,1.5-.06-1.86,2.83-3.63.19-5.85-.18-.15.24-1.13.52-1.64s.81-.56.92-.93c.88-3,2.94-2.93,5.45-2l.6-3.64,2.2,4.45v-3.77c3.34.28.94,3,2,4.12l1.79-2.42Z" transform="translate(-65.7 -24.14)"/><path class="cls-3" d="M349.28,207.86l2.69-2.15c1.24-1,1.4-2,.58-3.44-.56-1-.43-2.39-.61-3.61l.95-.31,3.23,3.72,2.75-2.16c1.4,1.07,2.13,2.09.2,3.42a1.86,1.86,0,0,0-.77,1.27c0,2.31,5,6,7.42,5.69.49-.07,1.42.2,1.47.44a2.37,2.37,0,0,1-.35,1.82c-1.47,1.66-4.56,1.33-6.39-.63-.85-.9-1.57-1.92-2.39-2.86s-1.66-1.81-2.46-2.68c-.42.15-.74.16-.9.33-1.16,1.26-3.79,1.64-3.08,4,.93,3.11,4.76,5.71,7.16,5.39.53-.07,1.13.4,1.7.62-.29.47-.48,1.1-.89,1.4a4.58,4.58,0,0,1-6-.94c-1.26-1.37-2.39-2.86-3.66-4.23a2.74,2.74,0,0,0-1.68-1c-1.62,0-2-.54-1.7-2.08.12-.55-.39-1.23-.58-1.86-.34-1.14-.65-2.3-1-3.44l1-.46Z" transform="translate(-65.7 -24.14)"/><path class="cls-3" d="M426.63,145.42c-.16,2.56-.26,4.4-.4,6.23a2.43,2.43,0,0,0,2.22,3c2.16.44,4.27,1.15,6.4,1.75.16,0,.28.2.51.37-.75,2.24-2.42,1.79-4.07,1.41s-3.06-.68-4.6-1l-.65.54a18.19,18.19,0,0,0,1.67,3c1.31,1.59,1.14,2.63-1.11,3.46l-13-15.9,2.6-1.86,6.81,8.54C424.3,151.69,422.24,147.8,426.63,145.42Z" transform="translate(-65.7 -24.14)"/><path class="cls-3" d="M377,201.77c.19,2.71-1.45,4.4-3.6,5.8a4.36,4.36,0,0,1-5.84-.57,34.87,34.87,0,0,1-4.3-5,4.73,4.73,0,0,1,.82-6.65c2.54-2.32,5.54-2.8,7.72-1.12a16.34,16.34,0,0,1,2.16,2.33c1,1.1,1.24,2-.35,3a15.88,15.88,0,0,0-3.5,2.82,7.51,7.51,0,0,0-1,2.49c1,.19,2.17.73,3.07.47s1.2-1.41,1.85-2.1,1.51-1.4,2.27-2.09Zm-10-.27a13.59,13.59,0,0,0,2.34-1.9,8.42,8.42,0,0,0,.91-2.3c-.86-.17-1.83-.68-2.57-.46C365.17,197.57,364.92,199.07,367,201.49Z" transform="translate(-65.7 -24.14)"/><path class="cls-3" d="M335.39,237.77c-1,1.45-1.82,2.1-3,.56q-5.2-6.59-10.54-13.07c-1.11-1.35-.83-2.19,1-2.95l3.49,3.92c6.52-4.89,7.28-4.78,12.32,1.52a30.63,30.63,0,0,1,2.47,3.13,6.31,6.31,0,0,1,.37,2.25c-.8-.22-1.86-.2-2.35-.72-1.64-1.74-3-3.73-4.62-5.51s-3.36-1.78-5-.12c-1.19,1.17-1.21,2.19-.14,3.45C331.34,232.67,333.31,235.19,335.39,237.77Z" transform="translate(-65.7 -24.14)"/><path class="cls-3" d="M386.67,196.12l-.92-2.61a44.77,44.77,0,0,0,4.48-3.12c.51-.45.49-1.52.71-2.31a6.74,6.74,0,0,0-2.35-.48,11,11,0,0,0-2.67,1.16,3.76,3.76,0,0,1-4.81-1c-1.37-1.52-1.68-3.35-.41-4.85a23.05,23.05,0,0,1,4.64-3.75c.3-.21,1.12.33,1.7.53a5.82,5.82,0,0,1-.92,1.58,28.18,28.18,0,0,0-2.88,2.25,2.24,2.24,0,0,0-.05,2.16c.3.42,1.42.5,2.08.34a17,17,0,0,0,2.64-1.25c1.8-.8,3.62-1.19,5.13.54a4.55,4.55,0,0,1,.52,5.69C392,193.53,389.5,194.82,386.67,196.12Z" transform="translate(-65.7 -24.14)"/><path class="cls-3" d="M323.08,247.82c-1.32-1.66-1.33-2.57.24-3.35a9.21,9.21,0,0,0,3-2.15c.5-.61.39-1.73.56-2.62a9.31,9.31,0,0,0-2.62-.3,9.41,9.41,0,0,0-2.39,1.13,4.06,4.06,0,0,1-5.1-6,17.84,17.84,0,0,1,4.27-3.45c.37-.24,1.27.31,1.92.5a5.49,5.49,0,0,1-.88,1.58,30.67,30.67,0,0,0-2.89,2.24,2.34,2.34,0,0,0-.07,2.13c.2.39,1.24.57,1.84.46a9.44,9.44,0,0,0,2.44-1c2.14-1.06,4.1-1.1,5.72.94a4.31,4.31,0,0,1-.51,6A44.49,44.49,0,0,1,323.08,247.82Z" transform="translate(-65.7 -24.14)"/><path class="cls-3" d="M337.42,217.91c1.8,2.24,3.63,4.5,5.45,6.77,1.17,1.46,2.55,2.2,4.4,1.27,2.17-1.08,2.51-2.47,1-4.39-1.65-2.09-3.28-4.19-5-6.17-1.23-1.39-1-2.28.86-3.19,2.61,3.27,5.26,6.55,7.84,9.89.3.39.46,1.41.22,1.64-1.91,1.75-3.71,3.81-6,4.92s-4.11-.84-5.57-2.59-2.85-3.4-4.17-5.17C335.24,219.28,335.3,219.24,337.42,217.91Z" transform="translate(-65.7 -24.14)"/><path class="cls-3" d="M416.94,171.11c-3.54.07-9.16-7.69-8-11.05.95-2.74,4.24-4.84,6.91-4.25.63.14,1.14.84,1.7,1.28a12.16,12.16,0,0,1-1.78,1.65c-.39.25-1.22-.1-1.52.18-1,.89-2.67,2.56-2.48,2.84a33.58,33.58,0,0,0,5.18,6c.25.23,2.11-1.28,3.19-2,.17-.12.07-.58.23-.73.63-.57,1.31-1.07,2-1.6.3.82,1,1.69.85,2.46C422.85,168.48,419.62,171.06,416.94,171.11Z" transform="translate(-65.7 -24.14)"/><path class="cls-3" d="M388.16,170.44c.53.57,1.08,1.12,1.6,1.7s.91,1.07,1.22,1.44a5.36,5.36,0,0,0,.6-.07l3.22-1c-.37.92-.76,1.84-1.11,2.77a2.25,2.25,0,0,0-.23,1c.24,2,5.27,5.61,7.32,5.46a2.51,2.51,0,0,1,2,.93c.21.33-.3,1.47-.79,1.86a4.55,4.55,0,0,1-6-.42c-1.32-1.41-2.36-3.1-3.67-4.52a9.7,9.7,0,0,0-2.42-1.49c-.22-.12-.54-.09-.71-.24a1.8,1.8,0,0,1-.6-.84c-.47-2.07-.9-4.15-1.34-6.23Z" transform="translate(-65.7 -24.14)"/><path class="cls-3" d="M377.27,185.19c.15,1.05.64,2.12.31,2.52-1.73,2.14-1.13,3.76.57,5.56a43,43,0,0,1,4,5.25c.29.43.33,1.56.06,1.74-.53.35-1.74.61-2,.31a69.66,69.66,0,0,1-6.3-8c-1.34-2.11-.22-5.16,1.82-6.59C376,185.82,376.36,185.68,377.27,185.19Z" transform="translate(-65.7 -24.14)"/><path class="cls-3" d="M409.81,168.59c4,3.72,4.25,5.77.84,8.82a2.72,2.72,0,0,1-2.55.25c-1.18-.75-.81-1.8.32-2.51,1.6-1,1.6-2.15.41-3.48S408.25,169.34,409.81,168.59Z" transform="translate(-65.7 -24.14)"/><path class="cls-3" d="M402.67,168c-2.2,1.55-3.26,3.19-.9,5.4a1.79,1.79,0,0,1-.22,1.69,2.26,2.26,0,0,1-2,.06,5,5,0,0,1,.27-8.19C401.18,166,402,166.12,402.67,168Z" transform="translate(-65.7 -24.14)"/><path class="cls-3" d="M367.64,260.44c2.29,3-.27,4.67-1.19,6.8l-.64-.17Z" transform="translate(-65.7 -24.14)"/><path class="cls-3" d="M469.66,187,466.82,191l-.77-.54,2.8-4.08Z" transform="translate(-65.7 -24.14)"/><path d="M166.47,386h-6c.37-1.06.42-2.37,1-2.72a3.91,3.91,0,0,1,3.15-.24C165.4,383.37,165.72,384.68,166.47,386Z" transform="translate(-65.7 -24.14)"/><path d="M785.6,375.87c3.25-.68,2.82,1.23,2.68,2.56-.06.61-.9,1.15-1.38,1.72Z" transform="translate(-65.7 -24.14)"/><path d="M367,201.49c-2.1-2.42-1.85-3.92.68-4.66.75-.22,1.71.29,2.57.46a8.42,8.42,0,0,1-.91,2.3A13.59,13.59,0,0,1,367,201.49Z" transform="translate(-65.7 -24.14)"/><path class="cls-4" d="M346.79,206.08c0,4-.12,8-.09,12,0,2.38-.17,4.61,1.8,6.29,2.91,2.49,9.88,2.15,13,.15,9.57-6.21-1.76-22.18-7.51-26.83a2.53,2.53,0,0,0-4.18,1.1l-5.12,18.43c-.47,1.7,1.25,3.78,3.08,3.08a21,21,0,0,0,11.4-9.91c1.52-2.84-2.8-5.37-4.32-2.52a15.65,15.65,0,0,1-8.41,7.61l3.08,3.08,5.12-18.43-4.18,1.1a26,26,0,0,1,6.44,7.34c1.23,2.14,4,7.62,2.9,10.32-.83,2.07-3.56,2.26-5.37,2-2.73-.36-2.31-.65-2.68-2.83-.63-3.72.06-8.26.09-12,0-3.22-5-3.22-5,0Z" transform="translate(-65.7 -24.14)"/><path class="cls-4" d="M448.25,181.95c16.09,0,16.11-25,0-25s-16.11,25,0,25Z" transform="translate(-65.7 -24.14)"/><path class="cls-4" d="M449.78,168.67v1.56a13.91,13.91,0,0,0,3.66,8.84,13.91,13.91,0,0,0,8.84,3.66l3.32-.45a12.49,12.49,0,0,0,5.52-3.21l2-2.53a12.44,12.44,0,0,0,1.71-6.31v-1.56a13.91,13.91,0,0,0-3.66-8.84,13.91,13.91,0,0,0-8.84-3.66l-3.32.45a12.49,12.49,0,0,0-5.52,3.21l-2,2.53a12.44,12.44,0,0,0-1.71,6.31Z" transform="translate(-65.7 -24.14)"/><path class="cls-4" d="M471.44,157.32c-17.35-1-23.67,16.39-33.35,26.59A63.72,63.72,0,0,1,404,202.7c-6.68,1.37-15,1.1-22.61.68-8.69-.48-17.37-1.14-26-.13-17.58,2.06-32,10.78-46.2,20.76-9.11,6.4-7.38,19,3,22.85,4.82,1.79,7.13,6.41,13,6.41,5,0,9.84-2.79,13.54-5.85,5.82-4.8,9.5-11.91,11.34-19.15,1.92-7.58,1.53-16.14,5.89-22.55,1.3-1.9-.47.28,1.27-1.5A40.57,40.57,0,0,1,361,200.7c-1.4,1.1,1.46-1,1.75-1.16,1.51-1,3.06-1.92,4.63-2.81,5.65-3.2,11.6-5.83,17.36-8.83a124.23,124.23,0,0,0,19.56-13.12c10.63-8.4,20.4-17.92,33.39-20.67L421.87,142a1.38,1.38,0,0,1,.24-1.08q.42-.76-.14.23c.08,0-.08.23-.82,1-1.1,1.16-.37.48-1.16,1.08S418,144.6,417,145.2c-4.56,2.79-9.33,5.19-13.85,8.07a244.82,244.82,0,0,0-28.27,21.53c-8.36,7.24-17.34,14.61-24.67,22.91-4.41,5-7.44,11-7,17.77.4,6.54,4.05,13.46,10.27,16.15s13.41,1.83,17.1-4.48c3.09-5.28,1.74-14.4-4.48-17.1-3-1.3,1.68,2.51,1.93,3.3,0-.09.14,1.91,0,1.9a39.15,39.15,0,0,0,3.21-3.2c3.59-3.44,7.24-6.82,10.9-10.19a289.5,289.5,0,0,1,22.91-19.54c7.86-5.85,16.29-10.44,24.61-15.53,9.51-5.82,16.15-13.33,17.2-24.75.79-8.59-8.58-13.58-15.82-12.05-14.51,3.07-26.13,12.19-37.34,21.36a158.87,158.87,0,0,1-31,19.63c-11.53,5.71-23.39,12.71-29.78,24.37-3.94,7.2-4.85,14.87-6.32,22.78a30.71,30.71,0,0,1-2.44,8.15c-1.78,3.09.22-1.33-1.24,1.77q-1.64,1.57-.52.47,1.59-.41-.64.21L334,231.93a43.52,43.52,0,0,0-15.18-9.18l3,22.85c11.91-8.37,24.08-17.07,39.11-17.81,16.75-.83,33.1,2.43,49.77-1,14.65-3,28.24-10.25,39.54-19.94a86.51,86.51,0,0,0,14.28-16.1c1.7-2.42,3.37-5.19,4.68-6.65,0,.05,2.56-2.93,1.43-1.62q2-1.12.38-.34-1.94.14.45.17c6.75.39,12.5-6,12.5-12.5,0-7.1-5.73-12.1-12.5-12.5Z" transform="translate(-65.7 -24.14)"/><path class="cls-4" d="M463.06,198.31c16.09,0,16.11-25,0-25s-16.11,25,0,25Z" transform="translate(-65.7 -24.14)"/><path class="cls-4" d="M387.45,209.23c16.09,0,16.11-25,0-25s-16.11,25,0,25Z" transform="translate(-65.7 -24.14)"/><path class="cls-4" d="M273.64,232.61c16.09,0,16.11-25,0-25s-16.11,25,0,25Z" transform="translate(-65.7 -24.14)"/><path class="cls-4" d="M791.13,71.22c16.09,0,16.11-25,0-25s-16.11,25,0,25Z" transform="translate(-65.7 -24.14)"/><path class="cls-4" d="M782.07,64.73c16.09,0,16.11-25,0-25s-16.11,25,0,25Z" transform="translate(-65.7 -24.14)"/><path class="cls-4" d="M772.16,61.48c16.09,0,16.11-25,0-25s-16.11,25,0,25Z" transform="translate(-65.7 -24.14)"/><path class="cls-4" d="M755.24,59.26c16.09,0,16.11-25,0-25s-16.11,25,0,25Z" transform="translate(-65.7 -24.14)"/><path class="cls-4" d="M763.27,59.09c16.09,0,16.11-25,0-25s-16.11,25,0,25Z" transform="translate(-65.7 -24.14)"/><path class="cls-4" d="M745.85,48.11c9.65,0,9.67-15,0-15s-9.67,15,0,15Z" transform="translate(-65.7 -24.14)"/><path class="cls-4" d="M749.43,48.11c9.65,0,9.67-15,0-15s-9.67,15,0,15Z" transform="translate(-65.7 -24.14)"/><path class="cls-4" d="M753.19,48.11c9.65,0,9.67-15,0-15s-9.67,15,0,15Z" transform="translate(-65.7 -24.14)"/><path class="cls-4" d="M757.12,47.77c9.65,0,9.67-15,0-15s-9.67,15,0,15Z" transform="translate(-65.7 -24.14)"/><path class="cls-4" d="M800.35,67.76c9.65,0,9.67-15,0-15s-9.67,15,0,15Z" transform="translate(-65.7 -24.14)"/><path class="cls-4" d="M804.28,69.47c9.65,0,9.67-15,0-15s-9.67,15,0,15Z" transform="translate(-65.7 -24.14)"/><path class="cls-4" d="M809.58,73.23c9.65,0,9.67-15,0-15s-9.67,15,0,15Z" transform="translate(-65.7 -24.14)"/><path class="cls-4" d="M817.78,68.57c3.22,0,3.22-5,0-5s-3.22,5,0,5Z" transform="translate(-65.7 -24.14)"/><path class="cls-4" d="M818,64.6h-1.54a2.5,2.5,0,0,0,0,5H818a2.5,2.5,0,0,0,0-5Z" transform="translate(-65.7 -24.14)"/><path class="cls-4" d="M809.92,69.26c3.22,0,3.22-5,0-5s-3.22,5,0,5Z" transform="translate(-65.7 -24.14)"/><path class="cls-4" d="M721.25,43.76c2.61-.81,6.18-1.27,8.41-2.91,1.48-1.09,1.78-4.25-.6-4.57a36.07,36.07,0,0,0-9.9,0c-2.84.38-2.08,4.91.66,4.91,2.22,0,4.27-1.62,6.43-2.15,2.53-.61,5.13-.9,7.67-1.49,2.82-.65,2.09-4.82-.66-4.91-3.85-.13-7.69-.12-11.36,1.2-3,1.09-1.71,5.92,1.33,4.82,3.27-1.18,6.59-1.14,10-1l-.66-4.91c-2.39.55-4.83.83-7.22,1.38a22.36,22.36,0,0,0-3.46,1.06c-.51.21-2.05,1-2.09,1l.66,4.91a27.14,27.14,0,0,1,7.24,0l-.6-4.57c-1.83,1.35-5,1.74-7.21,2.41-3.07.95-1.76,5.77,1.33,4.82Z" transform="translate(-65.7 -24.14)"/><path class="cls-4" d="M746.19,37.25a119.81,119.81,0,0,1,14.16.87c3.19.39,3.16-4.62,0-5a119.81,119.81,0,0,0-14.16-.87c-3.22,0-3.22,5,0,5Z" transform="translate(-65.7 -24.14)"/><path class="cls-4" d="M747,32.34a23.8,23.8,0,0,0-4.76.36,45.48,45.48,0,0,1-5.46.21c-3.22,0-3.22,5,0,5a45.79,45.79,0,0,0,5.44-.21,24.13,24.13,0,0,1,4.77-.36c3.21.26,3.19-4.74,0-5Z" transform="translate(-65.7 -24.14)"/><path class="cls-4" d="M746.23,32A53.59,53.59,0,0,0,732,33.17c-3.15.67-1.81,5.49,1.33,4.82a48.44,48.44,0,0,1,12.92-1c3.21.18,3.2-4.82,0-5Z" transform="translate(-65.7 -24.14)"/><path class="cls-4" d="M818,62.7A14.16,14.16,0,0,1,815,60.47c-1.08-.87-2.36-1.43-3.44-2.29a2.58,2.58,0,0,0-3.54,0,2.52,2.52,0,0,0,0,3.54c1.19.95,2.58,1.6,3.76,2.55A17.82,17.82,0,0,0,815.43,67a2.57,2.57,0,0,0,3.42-.9,2.52,2.52,0,0,0-.9-3.42Z" transform="translate(-65.7 -24.14)"/><path class="cls-4" d="M808.25,61.28a10.61,10.61,0,0,0,2.06,1.55l.82.53c.49.33-.3-.34.09.09.13.14.27.27.39.42a2.51,2.51,0,0,0,3.54,0,2.57,2.57,0,0,0,0-3.54,8,8,0,0,0-2-1.61l-.83-.52c-.1-.07-.55-.45-.12-.06-.14-.13-.29-.26-.42-.4a2.5,2.5,0,0,0-3.54,3.54Z" transform="translate(-65.7 -24.14)"/><path class="cls-4" d="M810.9,62.7c3.22,0,3.22-5,0-5s-3.22,5,0,5Z" transform="translate(-65.7 -24.14)"/><path class="cls-4" d="M811.81,60.44a1.25,1.25,0,0,0,0-2.5,1.25,1.25,0,0,0,0,2.5Z" transform="translate(-65.7 -24.14)"/><path class="cls-4" d="M812.12,60.58a1.25,1.25,0,0,0,0-2.5,1.25,1.25,0,0,0,0,2.5Z" transform="translate(-65.7 -24.14)"/><path class="cls-4" d="M815.46,60.17c-.75-.5-1.48-1.05-2.27-1.48a6.54,6.54,0,0,1-2-1.23c-1.08-1.2-2.84.57-1.77,1.77a6.78,6.78,0,0,0,2.21,1.49,23.23,23.23,0,0,1,2.53,1.62c1.34.9,2.59-1.27,1.26-2.16Z" transform="translate(-65.7 -24.14)"/><path class="cls-4" d="M816.24,60.78c-2.15-1.09-3.71-3-5.88-4.08-1.44-.71-2.71,1.45-1.26,2.16,2.16,1.06,3.72,3,5.88,4.08,1.43.72,2.7-1.43,1.26-2.16Z" transform="translate(-65.7 -24.14)"/><path class="cls-4" d="M363.15,267.69a1.25,1.25,0,0,0,0-2.5,1.25,1.25,0,0,0,0,2.5Z" transform="translate(-65.7 -24.14)"/><path class="cls-4" d="M366.07,263.88a1.25,1.25,0,0,0,0-2.5,1.25,1.25,0,0,0,0,2.5Z" transform="translate(-65.7 -24.14)"/><path class="cls-4" d="M365.8,261.06a10.42,10.42,0,0,1-.57,2.66,20.82,20.82,0,0,0-.85,2,1.66,1.66,0,0,0,2,2.1c3.24-.49,3-5.23,3.27-7.6.19-1.59-2.31-1.58-2.5,0-.12,1-.23,2.05-.36,3.08a6.17,6.17,0,0,1-.23,1.28,1.35,1.35,0,0,1-.26.56q-.61.31.2.39l.37.88c-.05-.55.77-1.8,1-2.39a13.66,13.66,0,0,0,.52-2.91c.13-1.6-2.37-1.59-2.5,0Z" transform="translate(-65.7 -24.14)"/><path class="cls-4" d="M100.64,283.53a57.14,57.14,0,0,1,7.3-5,1.25,1.25,0,0,0-1.26-2.16,61.23,61.23,0,0,0-7.8,5.39c-1.25,1,.53,2.77,1.77,1.77Z" transform="translate(-65.7 -24.14)"/><path class="cls-4" d="M106.26,275.45c-1.17.69-2,1.8-3.12,2.52a7.69,7.69,0,0,0-2.82,2.49,1.25,1.25,0,0,0,2.16,1.26,7.26,7.26,0,0,1,2.43-1.93c.93-.65,1.63-1.61,2.61-2.19a1.25,1.25,0,0,0-1.26-2.16Z" transform="translate(-65.7 -24.14)"/></g></g></g></svg>