<svg width="325" height="325" viewBox="0 0 325 325" version="1.1" xmlns="http://www.w3.org/2000/svg" xmlns:xlink="http://www.w3.org/1999/xlink" xmlns:figma="http://www.figma.com/figma/ns">
<title>face</title>
<desc>Created using Figma</desc>
<g id="Canvas" transform="translate(39 968)" figma:type="canvas">
<g id="face" figma:type="frame">
<g id="Ellipse 2" figma:type="ellipse">
<mask id="mask0_outline_ins">
<use xlink:href="#path0_fill" fill="white" transform="translate(-38.8491 -967.993)"/>
</mask>
<g mask="url(#mask0_outline_ins)">
<use xlink:href="#path1_stroke_2x" transform="translate(-38.8491 -967.993)" fill="#828282"/>
</g>
</g>
<g id="Vector 2" figma:type="vector">
<use xlink:href="#path2_stroke" transform="translate(-22.5564 -871.715)" fill="#828282"/>
</g>
</g>
</g>
<defs>
<path id="path0_fill" d="M 324.547 162.273C 324.547 251.894 251.894 324.547 162.273 324.547C 72.6522 324.547 0 251.894 0 162.273C 0 72.6522 72.6522 0 162.273 0C 251.894 0 324.547 72.6522 324.547 162.273Z"/>
<path id="path1_stroke_2x" d="M 319.547 162.273C 319.547 249.133 249.133 319.547 162.273 319.547L 162.273 329.547C 254.656 329.547 329.547 254.656 329.547 162.273L 319.547 162.273ZM 162.273 319.547C 75.4137 319.547 5 249.133 5 162.273L -5 162.273C -5 254.656 69.8908 329.547 162.273 329.547L 162.273 319.547ZM 5 162.273C 5 75.4137 75.4137 5 162.273 5L 162.273 -5C 69.8908 -5 -5 69.8908 -5 162.273L 5 162.273ZM 162.273 5C 249.133 5 319.547 75.4137 319.547 162.273L 329.547 162.273C 329.547 69.8908 254.656 -5 162.273 -5L 162.273 5Z"/>
<path id="path2_stroke" d="M 71.8328 73.3721L 69.3536 73.6935L 69.636 75.8721L 71.8328 75.8721L 71.8328 73.3721ZM 146.564 73.3721L 146.564 75.8721L 149.064 75.8721L 149.064 73.3721L 146.564 73.3721ZM 179.173 73.3721L 176.673 73.3721L 176.673 75.8721L 179.173 75.8721L 179.173 73.3721ZM 251.187 73.3721L 251.187 75.8721L 253.466 75.8721L 253.676 73.6026L 251.187 73.3721ZM 28.3531 108.699L 28.4635 106.202L 23.6229 105.988L 26.2537 110.057L 28.3531 108.699ZM 274.285 119.569L 276.07 121.32L 279.997 117.319L 274.396 117.072L 274.285 119.569ZM -1.186e-05 2.5L 62.3216 2.5L 62.3216 -2.5L -1.186e-05 -2.5L -1.186e-05 2.5ZM 59.8424 0.321385L 69.3536 73.6935L 74.3121 73.0507L 64.8009 -0.321385L 59.8424 0.321385ZM 71.8328 75.8721L 146.564 75.8721L 146.564 70.8721L 71.8328 70.8721L 71.8328 75.8721ZM 62.3216 2.5L 146.564 2.5L 146.564 -2.5L 62.3216 -2.5L 62.3216 2.5ZM 149.064 73.3721L 149.064 0L 144.064 0L 144.064 73.3721L 149.064 73.3721ZM 146.564 2.5L 179.173 2.5L 179.173 -2.5L 146.564 -2.5L 146.564 2.5ZM 176.673 0L 176.673 73.3721L 181.673 73.3721L 181.673 0L 176.673 0ZM 179.173 75.8721L 251.187 75.8721L 251.187 70.8721L 179.173 70.8721L 179.173 75.8721ZM 179.173 2.5L 257.98 2.5L 257.98 -2.5L 179.173 -2.5L 179.173 2.5ZM 257.98 2.5L 291.482 2.5L 291.482 -2.5L 257.98 -2.5L 257.98 2.5ZM 253.676 73.6026L 260.47 0.230497L 255.491 -0.230497L 248.697 73.1416L 253.676 73.6026ZM 26.2537 110.057C 43.4603 136.67 76.6041 169.257 120.237 180.283C 164.103 191.369 217.97 180.516 276.07 121.32L 272.501 117.818C 215.379 176.018 163.264 185.999 121.462 175.436C 79.4261 164.813 47.2144 133.267 30.4525 107.342L 26.2537 110.057ZM 274.396 117.072L 28.4635 106.202L 28.2427 111.197L 274.175 122.067L 274.396 117.072Z"/>
</defs>
</svg>
