<svg xmlns="http://www.w3.org/2000/svg" viewBox="0 0 1085.14 269.59"><defs><style>.cls-1{fill:#ba9c81;stroke:#fff;stroke-width:2.5px;}.cls-1,.cls-4{stroke-miterlimit:10;}.cls-2{fill:#65341a;opacity:0.7;}.cls-3{fill:#44261f;}.cls-4{fill:#fff;stroke:#231f20;}.cls-5{font-size:190px;fill:#231f20;font-family:Industry-BoldItalic, Industry;font-weight:700;font-style:italic;}.cls-6{letter-spacing:-0.02em;}.cls-7{letter-spacing:0em;}.cls-8{fill:#915f3d;}.cls-9{fill:#532d15;}.cls-10{fill:#ae8a71;}</style></defs><title>Asset 1</title><g id="Layer_2" data-name="Layer 2"><g id="Layer_2-2" data-name="Layer 2"><polygon class="cls-1" points="26.82 40.84 945.09 209.01 950.53 188.14 30.78 32.68 26.82 40.84"/><path class="cls-2" d="M930.5,215.27s8.76-53.83,51.32-44.65c0,0,53,11.27,78.45,5,0,0,35.47-12.1,21.7,24.2,0,0-20.45,51.74-46.32,53.83,0,0-59.67,12.52-88.88-8.35C946.77,245.31,924.09,238,930.5,215.27Z"/><path class="cls-3" d="M949,184.22s25.45-9.6,27.54,7.09c0,0-.42,51.74,55.91,45.9,0,0-30.46,29.21-74.69,11.68S949,184.22,949,184.22Z"/><path class="cls-4" d="M953,211.09s-16.69-17.11,8.76-19.61C961.79,191.48,985.58,213.18,953,211.09Z"/><path class="cls-4" d="M1066.11,201.36s-18.36-5.84-21.28,9.88,21.28,1.94,21.28,1.94S1072,204.56,1066.11,201.36Z"/><path class="cls-1" d="M945.09,209s18.79,5.84,16.29-14.6l-10.85-6.26s-25.72,6.68-13.28,16.27S945.09,209,945.09,209Z"/><path class="cls-1" d="M933.84,210.68s-18.36-9.18,15-27.12c0,0,12.52,2.92,12.52,10.85l-19.61.42S956,200.66,956,210.68C956,210.68,944.69,214.43,933.84,210.68Z"/><path class="cls-1" d="M1050.25,218.19s-4.16-17.64,7.51-20.24l11.35,1.28,4.09,9.55-6.68,5.66S1052.76,214,1050.25,218.19Z"/><path class="cls-1" d="M1071.53,222.36s17.52-5,9.18-23.13c0,0-13.35-8.16-22.95-1.28l10.85,8.14-13.35,10.43S1072,216.1,1071.53,222.36Z"/><path class="cls-1" d="M168.07,21l912.65,176.64s10.65,16.9-9.18,23.13L164.19,29.08Z"/><text class="cls-5" transform="translate(176.69 203.09)">GOOD<tspan class="cls-6" x="489.62" y="0"> </tspan><tspan class="cls-7" x="531.04" y="0">AIM</tspan></text><path class="cls-8" d="M3,10.76s16-17.33,29.33-8c0,0,14.67,30.67,14.67,47.33,0,0,21.33,57.33,32,52,0,0,14.67,4.67,32-26l29.33-40s18.67-40.67,34-30c0,0,23.33,13.33,8,26.67,0,0-46,68-62,74.67,0,0-20.67,13.33-20.67,28L65,246.09s-6.67,18.67-27.33,9.33c0,0-21.33-5.33-7.33-36.67L53,132.09S29,108.76,3,10.76Z"/><path class="cls-9" d="M39.35,241.29A29.81,29.81,0,0,0,43.1,241c.29-.07.57-.08.85-.15s.55-.15.82-.21a7.19,7.19,0,0,0,.8-.25c.26-.09.55-.12.82-.21s.55-.18.84-.26a3.43,3.43,0,0,0,.87-.29c.28-.12.56-.27.84-.41l.41-.23a3.83,3.83,0,0,0,.35-.31,7.44,7.44,0,0,0,1.2-1.46,16.33,16.33,0,0,0,.73-1.77c.23-.58.28-1.26.47-1.86s.4-1.17.51-1.8c.24-1.25.62-2.41.88-3.65s.79-2.41,1.15-3.65a21.11,21.11,0,0,1,1.53-3.71l.3,0a20.1,20.1,0,0,1,.5,4.06c0,.34,0,.68,0,1l-.1,1c-.06.67-.17,1.34-.28,2a17.41,17.41,0,0,1-3.53,7.35c-.48.52-.94,1-1.35,1.55s-.92,1-1.32,1.54a14.48,14.48,0,0,1-3,3.11,7,7,0,0,1-4.3.87,6.5,6.5,0,0,1-3.9-1.73Z"/><path class="cls-9" d="M47.67,231.39s-.06,0-.08-.07l-.06-.14-.13-.28c-.08-.19-.17-.37-.23-.55-.15-.37-.3-.73-.42-1.1-.27-.73-.52-1.44-.76-2.15s-.48-1.39-.73-2-.52-1.23-.72-1.61a1.41,1.41,0,0,0-.27-.39c-.1-.12-.35-.11-.64,0a3.68,3.68,0,0,0-1.64,1.3,11.48,11.48,0,0,0-1.81,4.17l0-.06a29.59,29.59,0,0,0-.43,3.87,2.68,2.68,0,0,0,.25,1.29c.06.07,0,0,0,0a.93.93,0,0,0,.25,0,5.15,5.15,0,0,0,1.54-.24c.59-.17,1.23-.39,1.86-.63l2-.75.5-.19.45-.15C46.92,231.63,47.27,231.53,47.67,231.39Zm.27.13a10.9,10.9,0,0,1-.66.9l-.41.47-.38.41a16.21,16.21,0,0,1-1.64,1.51,12,12,0,0,1-1.94,1.27,6.08,6.08,0,0,1-2.56.78,3.47,3.47,0,0,1-1.81-.36,3.21,3.21,0,0,1-1.4-1.49,5.4,5.4,0,0,1-.29-2.88,11.59,11.59,0,0,1,1.55-4.37l0-.06c1-1.3,1.92-2.56,2.82-3.88a11.63,11.63,0,0,1,1.61-2,2.59,2.59,0,0,1,1.56-.65,2.44,2.44,0,0,1,1,.15,3.39,3.39,0,0,1,.78.46,5,5,0,0,1,1.59,2.38,11.67,11.67,0,0,1,.54,2.45,13.9,13.9,0,0,1,.06,2.43,11.47,11.47,0,0,1-.13,1.21c0,.2-.08.4-.12.6s0,.2-.07.3Z"/><path class="cls-9" d="M73.5,203.08a38.58,38.58,0,0,1-.2-8,44.17,44.17,0,0,1,1.12-7.84c.66-2.57,1.63-5.06,2.32-7.6.33-1.27.61-2.56.89-3.84s.46-2.6.71-3.9.47-2.61.75-3.91.69-2.56,1.05-3.84l.56-1.91.66-1.88c.45-1.25.89-2.51,1.45-3.72a53.39,53.39,0,0,1,3.82-7,41.75,41.75,0,0,1,4.89-6.32l.25.17c-2,4.94-4.12,9.61-6,14.43-.51,1.19-.94,2.41-1.47,3.59l-.77,1.78-.71,1.81c-.95,2.42-1.9,4.84-2.91,7.26a39.71,39.71,0,0,0-2.24,7.51c-.51,2.57-.53,5.23-.8,7.82-.11,1.3-.34,2.58-.56,3.86s-.48,2.56-.72,3.84c-.53,2.56-1.05,5.12-1.8,7.68Z"/><path class="cls-9" d="M47.67,178.7a25.3,25.3,0,0,1,.78-4.59,23.85,23.85,0,0,1,1.47-4.28A42.88,42.88,0,0,0,52,165.74a15.57,15.57,0,0,0,.9-4.47c.08-1.54.22-3,.44-4.54s.32-3,.62-4.45a71,71,0,0,1,2.17-8.87h.3a23.72,23.72,0,0,1,.69,9.34,20.18,20.18,0,0,1-.42,2.29c-.17.76-.36,1.51-.59,2.25s-.42,1.49-.7,2.22-.62,1.44-.92,2.15A22.53,22.53,0,0,0,53,166c-.35,1.49-.37,3.1-.68,4.62A17.81,17.81,0,0,1,50.63,175a16.54,16.54,0,0,1-2.69,3.87Z"/><path class="cls-1" d="M5.32,35.84s-8.25-.25-1.25-11.25,31.5-17.25,37.5-11.25,0,6.5,0,6.5-10.75-3.58-23.5,3.59S5.32,35.84,5.32,35.84Z"/><path class="cls-1" d="M9.32,43.84S-1.27,42,10.82,31.59a33.82,33.82,0,0,1,21.25-9.75s18.33-2.5,12.17,6.25c0,0-10.66-3.83-23.5,5.17C20.73,33.26,9.82,39.34,9.32,43.84Z"/><path class="cls-1" d="M14.15,53.59S2.48,51,15.57,39.51c0,0,13.33-10.17,22.08-9.83,0,0,14-1.25,9.17,7.58,0,0-7.43-4.86-20,3.58S14.15,53.59,14.15,53.59Z"/><path class="cls-1" d="M148.69,18.72s-1.87-11.13,14.75-7.37c0,0,20.5,6.12,20.75,23.75,0,0-.12,7-5.75,6.75a23,23,0,0,0-10.37-19.25C156.94,15,148.69,18.72,148.69,18.72Z"/><path class="cls-1" d="M144.57,26.21s-3-10.49,15.75-5.74c0,0,18.75,5.88,16.13,24,0,0,0,2.88-3.5,4,0,0-.5-12.37-8.75-17.75S146.44,23.58,144.57,26.21Z"/><path class="cls-1" d="M139.69,33.85s-2.92-14.38,20.85-3.76c0,0,16.52,7.5,10.77,22.38a5.76,5.76,0,0,1-3.12,2.63S167.32,44,156.94,38.22,139.69,33.85,139.69,33.85Z"/><path class="cls-10" d="M25.41,46.72c1.35,2.91,2.46,5.87,3.56,8.83l.81,2.22L30.55,60c.54,1.48,1,3,1.45,4.49s.84,3,1.23,4.58.89,3,1.46,4.5a40.72,40.72,0,0,0,4.43,8.31l1.39,1.87a8.49,8.49,0,0,0,.73.9l.74.87,1.52,1.83a20.61,20.61,0,0,1,1.49,2,41.42,41.42,0,0,1,4.67,8.57,55.86,55.86,0,0,1,2.73,9.28,48.17,48.17,0,0,1,1.06,9.56l-.3,0c-2-6.06-4-12-6.45-17.66a64.45,64.45,0,0,0-4.09-8.25A22,22,0,0,0,41.39,89c-.42-.62-.86-1.25-1.32-2a35.45,35.45,0,0,1-2.37-4.28L33.81,74c-1.33-2.88-2.93-5.68-4.16-8.63A40.76,40.76,0,0,1,28,60.84q-.71-2.28-1.28-4.6a58.49,58.49,0,0,1-1.63-9.44Z"/><path class="cls-9" d="M35.13,41.82l4.67,14.09,2.3,7c.72,2.36,1.4,4.73,2.08,7.11a73.71,73.71,0,0,0,5.39,13.81c2.24,4.42,4.9,8.6,7.28,12.92l-.19-.27a26.92,26.92,0,0,1,3,4.18,39,39,0,0,1,2.26,4.45,46.42,46.42,0,0,1,2.82,9.49,56.25,56.25,0,0,1,.88,9.78c0,1.63-.11,3.26-.18,4.88s-.37,3.23-.62,4.82l-.3,0c-.18-1.61-.24-3.21-.4-4.8s-.31-3.18-.54-4.75-.41-3.14-.76-4.68c-.17-.77-.26-1.55-.45-2.32l-.54-2.29A68.12,68.12,0,0,0,59,106.36,42.28,42.28,0,0,0,57,102.15a25.32,25.32,0,0,0-2.39-3.8l-.16-.2,0-.07c-1.08-2.25-2.18-4.49-3.11-6.81s-1.89-4.62-2.79-6.94l-1.44-3.44c-.46-1.15-1-2.29-1.46-3.43l-1.54-3.4-1.6-3.38c-.52-1.14-1-2.27-1.54-3.41s-.93-2.32-1.38-3.48c-.84-2.35-1.55-4.74-2.2-7.15a73.44,73.44,0,0,1-2.55-14.76Z"/><path class="cls-9" d="M73.56,116.64c3.5-3.3,7.19-6.34,10.91-9.32S92,101.4,95.95,98.76s8-5.22,11.72-8.24a130.54,130.54,0,0,0,10.61-9.58l-.27.37c1.44-3.84,3.14-7.55,4.85-11.26s3.55-7.37,5.62-10.91c1-1.78,2.08-3.54,3.21-5.25s2.3-3.41,3.54-5.06a49,49,0,0,1,4-4.72,23.07,23.07,0,0,1,2.35-2.07,10.07,10.07,0,0,1,2.73-1.55l.12.27a17.05,17.05,0,0,0-4.1,4.3c-1.17,1.62-2.25,3.31-3.28,5-2.09,3.43-4,7-5.88,10.56l-5.66,10.73C123.64,75,121.85,78.61,120,82.2l-.14.27-.13.1c-3.81,3-7.73,5.69-11.47,8.67s-7.29,6.19-10.91,9.33a128.93,128.93,0,0,1-11.42,8.67,140.82,140.82,0,0,1-12.17,7.64Z"/><path class="cls-9" d="M148.75,41.69c-1.39,3.24-3,6.31-4.68,9.34-.84,1.51-1.68,3-2.56,4.51s-1.85,2.92-2.84,4.34a41.85,41.85,0,0,0-5.07,9,32.34,32.34,0,0,0-1.49,4.93,19.65,19.65,0,0,0-.52,4.84l0,.42-.34.42c-1.62,2-3.28,3.95-5,5.89s-3.42,3.82-5.24,5.63-3.7,3.57-5.65,5.26c-1,.85-2,1.66-3,2.46a17.07,17.07,0,0,1-3.33,2.12l-.13-.27a32.73,32.73,0,0,0,2.5-2.85l2.43-3q2.44-3,4.95-5.85c1.68-1.93,3.39-3.81,5.18-5.64l5.36-5.48-.32.85a17.22,17.22,0,0,1,1.44-5.35c.69-1.65,1.46-3.23,2.21-4.81,1.54-3.14,2.88-6.36,4.2-9.62a46.46,46.46,0,0,1,2.29-4.73c.87-1.51,1.82-3,2.78-4.44a59,59,0,0,1,6.54-8.22Z"/><path class="cls-9" d="M112.21,105.32a69,69,0,0,1,6.88-8c1.23-1.25,2.49-2.46,3.78-3.64A50.64,50.64,0,0,1,127,90.42c2.88-2,5.75-4,8.42-6.31l2-1.69c.66-.59,1.34-1.15,2-1.71l1-.85,1.09-.8A15.12,15.12,0,0,1,144,77.57l-.77.88c.43-2.74,1-5.41,1.65-8.09a67.55,67.55,0,0,1,2.37-7.92,58.05,58.05,0,0,1,3.43-7.59L151.73,53l1.22-1.73c.42-.56.93-1.08,1.39-1.6A16.89,16.89,0,0,1,156,48.36l.2.22a28.45,28.45,0,0,0-3.5,7.19c-.91,2.52-1.71,5.08-2.48,7.65s-1.54,5.16-2.35,7.74-1.52,5.2-2.26,7.79l-.18.64-.59.24a19.56,19.56,0,0,0-2.22.92l-1.14.56-1.12.65A38.4,38.4,0,0,0,136,84.84,54.45,54.45,0,0,0,128.4,92c-1.2,1.27-2.42,2.52-3.7,3.69s-2.6,2.31-3.94,3.43a95.59,95.59,0,0,1-8.33,6.4Z"/><path class="cls-9" d="M99.75,113.54A185.75,185.75,0,0,0,84.69,132a144.67,144.67,0,0,0-12.25,20.31,92.38,92.38,0,0,0-7.72,22.22,58.4,58.4,0,0,0-1.09,11.7,49.64,49.64,0,0,0,1.66,11.67l0,.11v.08c-.41,5-1,9.87-1.71,14.78S62,222.69,60.8,227.53a67,67,0,0,1-5,14.15,26.25,26.25,0,0,1-4.4,6.32,13.69,13.69,0,0,1-6.94,4l-.1,0h-.1a16.5,16.5,0,0,1-3.83-.43,15.47,15.47,0,0,1-3.62-1.29,12.93,12.93,0,0,1-5.6-5.39,16.67,16.67,0,0,1-1.89-7.41,29.89,29.89,0,0,1,.67-7.37,62.57,62.57,0,0,1,4.69-13.65c.52-1.08,1-2.17,1.55-3.23l1.66-3.18c1.15-2.05,2.26-4.11,3.37-6.18C45.71,195.62,50,187.27,54,178.77c2-4.23,3.93-8.52,5.73-12.85s3.45-8.72,4.93-13.19l.29.08A137.41,137.41,0,0,1,61,166.4c-1.58,4.45-3.26,8.87-5.07,13.23s-3.76,8.66-5.75,12.94-4,8.53-6.21,12.73c-1.08,2.09-2.18,4.2-3.3,6.26s-2.09,4.13-3.05,6.24a65.4,65.4,0,0,0-4.56,13,26.9,26.9,0,0,0-.73,6.63,13.79,13.79,0,0,0,1.43,6.17,10.12,10.12,0,0,0,4.34,4.32,14.49,14.49,0,0,0,6.13,1.63l-.2,0a11.3,11.3,0,0,0,5.8-3.15,25.37,25.37,0,0,0,4.3-5.63,62.73,62.73,0,0,0,5.46-13.55,113.4,113.4,0,0,0,3.13-14.43c.39-2.43.7-4.88,1-7.34s.46-4.92.57-7.37l0,.19A56.61,56.61,0,0,1,62,186.34a59.72,59.72,0,0,1,.51-12.16l.49-3,.68-3c.21-1,.53-2,.8-2.94s.56-2,.91-2.9.65-1.92,1-2.86l1.13-2.82c.83-1.85,1.64-3.7,2.58-5.49a104.39,104.39,0,0,1,6-10.49c2.18-3.39,4.53-6.66,7-9.82a132.4,132.4,0,0,1,16.43-17.55Z"/></g></g></svg>