<svg width="298" height="527" viewBox="0 0 298 527" version="1.1" xmlns="http://www.w3.org/2000/svg" xmlns:xlink="http://www.w3.org/1999/xlink" xmlns:figma="http://www.figma.com/figma/ns">
<title>guy</title>
<desc>Created using Figma</desc>
<g id="Canvas" transform="translate(1091 -183)" figma:type="canvas">
<g id="guy" figma:type="frame">
<g id="Vector" figma:type="vector">
<use xlink:href="#path0_stroke" transform="translate(-1088.34 189.717)" fill="#828282"/>
</g>
<g id="face" figma:type="frame">
<g id="Ellipse 2" figma:type="ellipse">
<mask id="mask0_outline_ins">
<use xlink:href="#path1_fill" fill="white" transform="matrix(-1 0 0 1 -827.046 228.59)"/>
</mask>
<g mask="url(#mask0_outline_ins)">
<use xlink:href="#path2_stroke_2x" transform="matrix(-1 0 0 1 -827.046 228.59)" fill="#828282"/>
</g>
</g>
<g id="Vector 2" figma:type="vector">
<use xlink:href="#path3_stroke" transform="matrix(-1 0 0 1 -836.215 282.774)" fill="#828282"/>
</g>
</g>
</g>
</g>
<defs>
<path id="path0_stroke" d="M 32.2607 0L 34.7388 -0.330409L 33.9074 -6.56567L 30.2319 -1.46076L 32.2607 0ZM 75.2749 322.607L 75.2749 325.107L 78.1304 325.107L 77.753 322.276L 75.2749 322.607ZM 0 44.8065L -2.02884 43.3457L -2.63461 44.187L -2.46719 45.2102L 0 44.8065ZM 32.2607 241.955L 29.7935 242.359L 29.8134 242.48L 29.8451 242.599L 32.2607 241.955ZM 53.7678 322.607L 51.3522 323.251L 51.8471 325.107L 53.7678 325.107L 53.7678 322.607ZM 168.206 407.217L 92.9307 516.545L 97.0489 519.381L 172.324 410.053L 168.206 407.217ZM 168.158 409.982L 238.056 519.31L 242.269 516.616L 172.371 407.288L 168.158 409.982ZM 167.765 218.883L 167.765 284.969L 172.765 284.969L 172.765 218.883L 167.765 218.883ZM 167.765 284.969L 167.765 408.635L 172.765 408.635L 172.765 284.969L 167.765 284.969ZM 171.322 282.704L 63.7863 232.52L 61.6719 237.051L 169.207 287.235L 171.322 282.704ZM 29.7826 0.330409L 72.7968 322.937L 77.753 322.276L 34.7388 -0.330409L 29.7826 0.330409ZM 30.2319 -1.46076L -2.02884 43.3457L 2.02884 46.2672L 34.2895 1.46076L 30.2319 -1.46076ZM -2.46719 45.2102L 29.7935 242.359L 34.7279 241.551L 2.46719 44.4027L -2.46719 45.2102ZM 29.8451 242.599L 51.3522 323.251L 56.1834 321.962L 34.6763 241.311L 29.8451 242.599ZM 53.7678 325.107L 75.2749 325.107L 75.2749 320.107L 53.7678 320.107L 53.7678 325.107ZM 171.37 287.212L 295.035 226.275L 292.825 221.79L 169.16 282.727L 171.37 287.212Z"/>
<path id="path1_fill" d="M 182.651 91.3254C 182.651 141.763 141.763 182.651 91.3254 182.651C 40.8878 182.651 0 141.763 0 91.3254C 0 40.8878 40.8878 0 91.3254 0C 141.763 0 182.651 40.8878 182.651 91.3254Z"/>
<path id="path2_stroke_2x" d="M 177.651 91.3254C 177.651 139.002 139.002 177.651 91.3254 177.651L 91.3254 187.651C 144.524 187.651 187.651 144.524 187.651 91.3254L 177.651 91.3254ZM 91.3254 177.651C 43.6492 177.651 5 139.002 5 91.3254L -5 91.3254C -5 144.524 38.1263 187.651 91.3254 187.651L 91.3254 177.651ZM 5 91.3254C 5 43.6492 43.6492 5 91.3254 5L 91.3254 -5C 38.1263 -5 -5 38.1263 -5 91.3254L 5 91.3254ZM 91.3254 5C 139.002 5 177.651 43.6492 177.651 91.3254L 187.651 91.3254C 187.651 38.1263 144.524 -5 91.3254 -5L 91.3254 5Z"/>
<path id="path3_stroke" d="M 40.4266 41.2929L 37.9474 41.6143L 38.2298 43.7929L 40.4266 43.7929L 40.4266 41.2929ZM 82.4842 41.2929L 82.4842 43.7929L 84.9842 43.7929L 84.9842 41.2929L 82.4842 41.2929ZM 100.837 41.2929L 98.3366 41.2929L 98.3366 43.7929L 100.837 43.7929L 100.837 41.2929ZM 141.365 41.2929L 141.365 43.7929L 143.644 43.7929L 143.854 41.5234L 141.365 41.2929ZM 15.9568 61.1747L 16.0671 58.6771L 11.2266 58.4631L 13.8573 62.532L 15.9568 61.1747ZM 154.364 67.2921L 156.149 69.0433L 160.076 65.0421L 154.475 64.7946L 154.364 67.2921ZM -6.67464e-06 2.5L 35.0738 2.5L 35.0738 -2.5L -6.67464e-06 -2.5L -6.67464e-06 2.5ZM 32.5946 0.321385L 37.9474 41.6143L 42.9059 40.9715L 37.5531 -0.321385L 32.5946 0.321385ZM 40.4266 43.7929L 82.4842 43.7929L 82.4842 38.7929L 40.4266 38.7929L 40.4266 43.7929ZM 35.0738 2.5L 82.4842 2.5L 82.4842 -2.5L 35.0738 -2.5L 35.0738 2.5ZM 84.9842 41.2929L 84.9842 0L 79.9842 0L 79.9842 41.2929L 84.9842 41.2929ZM 82.4842 2.5L 100.837 2.5L 100.837 -2.5L 82.4842 -2.5L 82.4842 2.5ZM 98.3366 0L 98.3366 41.2929L 103.337 41.2929L 103.337 0L 98.3366 0ZM 100.837 43.7929L 141.365 43.7929L 141.365 38.7929L 100.837 38.7929L 100.837 43.7929ZM 100.837 2.5L 145.188 2.5L 145.188 -2.5L 100.837 -2.5L 100.837 2.5ZM 145.188 2.5L 164.042 2.5L 164.042 -2.5L 145.188 -2.5L 145.188 2.5ZM 143.854 41.5234L 147.678 0.230497L 142.699 -0.230497L 138.875 41.0624L 143.854 41.5234ZM 13.8573 62.532C 23.6383 77.6599 42.4949 96.2271 67.4001 102.521C 92.5387 108.874 123.237 102.576 156.149 69.0433L 152.58 65.5409C 120.646 98.0772 91.6998 103.504 68.6251 97.6732C 45.317 91.783 27.3923 74.2572 18.0562 59.8173L 13.8573 62.532ZM 154.475 64.7946L 16.0671 58.6771L 15.8464 63.6722L 154.254 69.7897L 154.475 64.7946Z"/>
</defs>
</svg>
