<svg width="886" height="409" viewBox="0 0 886 409" version="1.1" xmlns="http://www.w3.org/2000/svg" xmlns:xlink="http://www.w3.org/1999/xlink" xmlns:figma="http://www.figma.com/figma/ns">
<title>mountains</title>
<desc>Created using Figma</desc>
<g id="Canvas" transform="translate(652 319)" figma:type="canvas">
<g id="mountains" figma:type="vector">
<use xlink:href="#path0_stroke" transform="translate(-649.13 -312.728)" fill="#828282"/>
</g>
</g>
<defs>
<path id="path0_stroke" d="M 203.406 0L 205.626 -1.15141L 203.45 -5.34477L 201.206 -1.18717L 203.406 0ZM 452.857 83.8677L 454.588 82.0639L 452.559 80.1165L 450.863 82.36L 452.857 83.8677ZM 699.129 48.7957L 701.334 47.6163L 698.835 42.9465L 696.818 47.8435L 699.129 48.7957ZM 134.291 128.089L 132.091 126.902L 132.078 126.926L 132.065 126.95L 134.291 128.089ZM 166.863 158.586L 165.154 160.411L 166.515 161.685L 168.124 160.745L 166.863 158.586ZM 203.406 137.238L 205.099 135.398L 203.74 134.148L 202.145 135.079L 203.406 137.238ZM 241.539 172.31L 239.847 174.15L 241.664 175.821L 243.358 174.025L 241.539 172.31ZM 274.616 137.238L 276.835 136.087L 276.835 136.087L 274.616 137.238ZM 391.798 164.635L 389.804 163.127L 389.804 163.127L 391.798 164.635ZM 419.491 189.083L 417.836 190.958L 419.345 192.29L 420.968 191.1L 419.491 189.083ZM 452.857 164.635L 453.064 162.144L 452.133 162.066L 451.379 162.619L 452.857 164.635ZM 545.01 172.31L 546.742 170.506L 546.742 170.506L 545.01 172.31ZM 666.466 128.089L 664.154 127.137L 664.145 127.158L 664.136 127.18L 666.466 128.089ZM 699.129 115.89L 700.994 114.225L 699.856 112.95L 698.255 113.548L 699.129 115.89ZM 718.196 137.238L 716.331 138.903L 718.315 141.124L 720.159 138.786L 718.196 137.238ZM 735.029 115.89L 737.257 114.756L 737.245 114.733L 737.233 114.71L 735.029 115.89ZM 328.476 246.464L 396.572 391.703L 401.099 389.581L 333.003 244.341L 328.476 246.464ZM 2.22575 391.78L 136.517 129.227L 132.065 126.95L -2.22575 389.504L 2.22575 391.78ZM 136.491 129.276L 205.607 1.18717L 201.206 -1.18717L 132.091 126.902L 136.491 129.276ZM 132.583 129.914L 165.154 160.411L 168.571 156.761L 136 126.264L 132.583 129.914ZM 168.124 160.745L 204.668 139.397L 202.145 135.079L 165.602 156.427L 168.124 160.745ZM 201.714 139.078L 239.847 174.15L 243.231 170.47L 205.099 135.398L 201.714 139.078ZM 201.187 1.15141L 272.396 138.389L 276.835 136.087L 205.626 -1.15141L 201.187 1.15141ZM 272.396 138.389L 328.52 246.554L 332.958 244.251L 276.835 136.087L 272.396 138.389ZM 243.358 174.025L 276.434 138.953L 272.797 135.523L 239.72 170.595L 243.358 174.025ZM 332.733 246.91L 393.792 166.143L 389.804 163.127L 328.745 243.895L 332.733 246.91ZM 393.792 166.143L 454.851 85.3753L 450.863 82.36L 389.804 163.127L 393.792 166.143ZM 390.143 166.509L 417.836 190.958L 421.145 187.209L 393.453 162.761L 390.143 166.509ZM 420.968 191.1L 454.334 166.652L 451.379 162.619L 418.013 187.067L 420.968 191.1ZM 451.126 85.6714L 543.279 174.114L 546.742 170.506L 454.588 82.0639L 451.126 85.6714ZM 543.279 174.114L 619.439 247.206L 622.901 243.599L 546.742 170.506L 543.279 174.114ZM 452.649 167.126L 544.803 174.801L 545.218 169.819L 453.064 162.144L 452.649 167.126ZM 566.406 391.55L 668.795 128.997L 664.136 127.18L 561.748 389.734L 566.406 391.55ZM 668.777 129.041L 701.441 49.7479L 696.818 47.8435L 664.154 127.137L 668.777 129.041ZM 667.34 130.431L 700.004 118.232L 698.255 113.548L 665.591 125.747L 667.34 130.431ZM 697.265 117.555L 716.331 138.903L 720.06 135.573L 700.994 114.225L 697.265 117.555ZM 696.925 49.9752L 732.825 117.069L 737.233 114.71L 701.334 47.6163L 696.925 49.9752ZM 732.801 117.024L 878.031 402.45L 882.487 400.182L 737.257 114.756L 732.801 117.024ZM 720.159 138.786L 736.992 117.438L 733.066 114.342L 716.233 135.69L 720.159 138.786Z"/>
</defs>
</svg>
