<svg width="896" height="367" viewBox="0 0 896 367" version="1.1" xmlns="http://www.w3.org/2000/svg" xmlns:xlink="http://www.w3.org/1999/xlink" xmlns:figma="http://www.figma.com/figma/ns">
<title>mountains2</title>
<desc>Created using Figma</desc>
<g id="Canvas" transform="translate(667 230)" figma:type="canvas">
<g id="mountains2" figma:type="vector">
<use xlink:href="#path0_stroke" transform="translate(-664 -224.754)" fill="#828282"/>
</g>
</g>
<defs>
<path id="path0_stroke" d="M 151.012 0L 153.187 -1.23284L 151.055 -4.99488L 148.859 -1.26955L 151.012 0ZM 290.119 245.403L 287.944 246.635L 287.944 246.635L 290.119 245.403ZM 423.529 83.8677L 425.179 81.9895L 423.243 80.2884L 421.601 82.2757L 423.529 83.8677ZM 692.574 48.7957L 694.732 47.5341L 692.285 43.3468L 690.294 47.7698L 692.574 48.7957ZM 111.09 158.586L 109.463 160.484L 110.761 161.597L 112.268 160.791L 111.09 158.586ZM 151.012 137.238L 152.622 135.326L 151.327 134.235L 149.833 135.033L 151.012 137.238ZM 192.671 172.31L 191.061 174.222L 192.79 175.678L 194.412 174.104L 192.671 172.31ZM 356.824 164.635L 354.896 163.043L 354.896 163.043L 356.824 164.635ZM 387.078 189.083L 385.506 191.028L 386.94 192.186L 388.47 191.16L 387.078 189.083ZM 423.529 164.635L 423.719 162.142L 422.856 162.077L 422.136 162.559L 423.529 164.635ZM 524.204 172.31L 525.854 170.432L 525.854 170.432L 524.204 172.31ZM 692.574 115.89L 694.363 114.144L 693.26 113.013L 691.765 113.524L 692.574 115.89ZM 713.403 137.238L 711.614 138.984L 713.518 140.935L 715.297 138.87L 713.403 137.238ZM 287.944 246.635L 362.338 377.875L 366.687 375.409L 292.294 244.17L 287.944 246.635ZM 2.15366 257.447L 77.6598 129.358L 73.3525 126.819L -2.15366 254.908L 2.15366 257.447ZM 77.6598 129.358L 153.166 1.26955L 148.859 -1.26955L 73.3525 126.819L 77.6598 129.358ZM 73.8793 129.987L 109.463 160.484L 112.716 156.688L 77.1331 126.191L 73.8793 129.987ZM 112.268 160.791L 152.191 139.443L 149.833 135.033L 109.911 156.382L 112.268 160.791ZM 149.402 139.15L 191.061 174.222L 194.281 170.397L 152.622 135.326L 149.402 139.15ZM 148.837 1.23284L 226.631 138.471L 230.981 136.005L 153.187 -1.23284L 148.837 1.23284ZM 226.631 138.471L 287.944 246.635L 292.294 244.17L 230.981 136.005L 226.631 138.471ZM 194.412 174.104L 230.547 139.032L 227.065 135.444L 190.93 170.516L 194.412 174.104ZM 292.047 246.995L 358.752 166.227L 354.896 163.043L 288.192 243.811L 292.047 246.995ZM 358.752 166.227L 425.457 85.4596L 421.601 82.2757L 354.896 163.043L 358.752 166.227ZM 355.253 166.58L 385.506 191.028L 388.649 187.139L 358.395 162.691L 355.253 166.58ZM 388.47 191.16L 424.921 166.711L 422.136 162.559L 385.685 187.007L 388.47 191.16ZM 421.879 85.7458L 522.554 174.188L 525.854 170.432L 425.179 81.9895L 421.879 85.7458ZM 522.554 174.188L 605.756 247.281L 609.056 243.524L 525.854 170.432L 522.554 174.188ZM 423.339 167.128L 524.014 174.803L 524.394 169.817L 423.719 162.142L 423.339 167.128ZM 547.313 377.668L 659.169 129.115L 654.61 127.063L 542.753 375.616L 547.313 377.668ZM 659.169 129.115L 694.854 49.8217L 690.294 47.7698L 654.61 127.063L 659.169 129.115ZM 657.698 130.454L 693.383 118.255L 691.765 113.524L 656.081 125.723L 657.698 130.454ZM 690.784 117.636L 711.614 138.984L 715.193 135.492L 694.363 114.144L 690.784 117.636ZM 690.416 50.0573L 729.635 117.151L 733.951 114.628L 694.732 47.5341L 690.416 50.0573ZM 729.635 117.151L 888.294 388.578L 892.61 386.054L 733.951 114.628L 729.635 117.151ZM 715.297 138.87L 733.687 117.521L 729.899 114.258L 711.509 135.606L 715.297 138.87Z"/>
</defs>
</svg>
