<svg width="669" height="551" viewBox="0 0 669 551" version="1.1" xmlns="http://www.w3.org/2000/svg" xmlns:xlink="http://www.w3.org/1999/xlink">
<title>tape</title>
<desc>Created using Figma</desc>
<g id="Canvas" transform="translate(-2473 782)">
<g id="tape">
<g id="Rectangle 4">
<use xlink:href="#path0_fill" transform="matrix(0.794347 -0.607465 0.607465 0.794347 2473.77 -325.804)" fill="#EB5757"/>
</g>
<g id="IN PROGRESS">
<use xlink:href="#path1_fill" transform="matrix(0.794347 -0.607465 0.607465 0.794347 2536.84 -354.578)" fill="#F2F2F2"/>
</g>
</g>
</g>
<defs>
<path id="path0_fill" d="M 0 0L 749.617 0L 749.617 118.937L 0 118.937L 0 0Z"/>
<path id="path1_fill" d="M 50.4445 78L 36.089 78L 36.089 6.90625L 50.4445 6.90625L 50.4445 78ZM 112.212 78L 97.8566 78L 76.8605 31.3691L 76.8605 78L 62.505 78L 62.505 6.90625L 76.8605 6.90625L 97.9054 53.5859L 97.9054 6.90625L 112.212 6.90625L 112.212 78ZM 161.138 53L 161.138 78L 146.782 78L 146.782 6.90625L 171.001 6.90625C 178.032 6.90625 183.631 9.08724 187.798 13.4492C 191.997 17.8112 194.097 23.4753 194.097 30.4414C 194.097 37.4076 192.03 42.9089 187.896 46.9453C 183.762 50.9818 178.032 53 170.708 53L 161.138 53ZM 161.138 41.0371L 171.001 41.0371C 173.735 41.0371 175.851 40.1419 177.349 38.3516C 178.846 36.5612 179.595 33.957 179.595 30.5391C 179.595 26.9909 178.83 24.1751 177.3 22.0918C 175.77 19.9759 173.719 18.9017 171.148 18.8691L 161.138 18.8691L 161.138 41.0371ZM 225.249 52.0234L 218.12 52.0234L 218.12 78L 203.765 78L 203.765 6.90625L 226.665 6.90625C 233.859 6.90625 239.409 8.77799 243.316 12.5215C 247.254 16.2324 249.224 21.5221 249.224 28.3906C 249.224 37.8307 245.79 44.4388 238.921 48.2148L 251.372 77.3164L 251.372 78L 235.943 78L 225.249 52.0234ZM 218.12 40.0605L 226.275 40.0605C 229.139 40.0605 231.288 39.1165 232.72 37.2285C 234.152 35.3079 234.868 32.7526 234.868 29.5625C 234.868 22.4336 232.085 18.8691 226.519 18.8691L 218.12 18.8691L 218.12 40.0605ZM 309.136 48.8496C 309.136 58.3874 306.873 65.793 302.349 71.0664C 297.857 76.3398 291.607 78.9766 283.599 78.9766C 275.623 78.9766 269.357 76.3724 264.8 71.1641C 260.243 65.9232 257.931 58.599 257.866 49.1914L 257.866 37.0332C 257.866 27.2676 260.129 19.6504 264.653 14.1816C 269.178 8.68034 275.461 5.92969 283.501 5.92969C 291.411 5.92969 297.645 8.63151 302.202 14.0352C 306.76 19.4062 309.071 26.9583 309.136 36.6914L 309.136 48.8496ZM 294.732 36.9355C 294.732 30.5228 293.82 25.7539 291.997 22.6289C 290.174 19.5039 287.342 17.9414 283.501 17.9414C 279.693 17.9414 276.877 19.4551 275.054 22.4824C 273.231 25.4772 272.287 30.0508 272.222 36.2031L 272.222 48.8496C 272.222 55.0671 273.15 59.6569 275.005 62.6191C 276.86 65.5488 279.725 67.0137 283.599 67.0137C 287.342 67.0137 290.125 65.5814 291.948 62.7168C 293.771 59.8197 294.699 55.3438 294.732 49.2891L 294.732 36.9355ZM 367.778 69.9434C 365.012 72.9382 361.61 75.2005 357.573 76.7305C 353.569 78.2279 349.175 78.9766 344.39 78.9766C 336.219 78.9766 329.872 76.4538 325.347 71.4082C 320.822 66.3301 318.495 58.957 318.364 49.2891L 318.364 36.4961C 318.364 26.6979 320.497 19.1621 324.761 13.8887C 329.058 8.58268 335.308 5.92969 343.511 5.92969C 351.226 5.92969 357.036 7.83398 360.943 11.6426C 364.881 15.4512 367.16 21.4245 367.778 29.5625L 353.814 29.5625C 353.423 25.0378 352.479 21.9616 350.982 20.334C 349.484 18.6738 347.14 17.8438 343.95 17.8438C 340.077 17.8438 337.261 19.2598 335.503 22.0918C 333.745 24.9238 332.834 29.4323 332.769 35.6172L 332.769 48.5078C 332.769 54.9857 333.729 59.7057 335.65 62.668C 337.603 65.5977 340.793 67.0625 345.22 67.0625C 348.052 67.0625 350.347 66.4928 352.105 65.3535L 353.374 64.4746L 353.374 51.4375L 343.316 51.4375L 343.316 40.5977L 367.778 40.5977L 367.778 69.9434ZM 399.468 52.0234L 392.339 52.0234L 392.339 78L 377.984 78L 377.984 6.90625L 400.884 6.90625C 408.078 6.90625 413.628 8.77799 417.534 12.5215C 421.473 16.2324 423.443 21.5221 423.443 28.3906C 423.443 37.8307 420.008 44.4388 413.14 48.2148L 425.591 77.3164L 425.591 78L 410.161 78L 399.468 52.0234ZM 392.339 40.0605L 400.493 40.0605C 403.358 40.0605 405.506 39.1165 406.939 37.2285C 408.371 35.3079 409.087 32.7526 409.087 29.5625C 409.087 22.4336 406.304 18.8691 400.737 18.8691L 392.339 18.8691L 392.339 40.0605ZM 470.025 47.2383L 447.661 47.2383L 447.661 66.0859L 474.126 66.0859L 474.126 78L 433.306 78L 433.306 6.90625L 474.028 6.90625L 474.028 18.8691L 447.661 18.8691L 447.661 35.666L 470.025 35.666L 470.025 47.2383ZM 512.456 59.3477C 512.456 56.4505 511.707 54.2695 510.21 52.8047C 508.745 51.3073 506.06 49.7611 502.153 48.166C 495.025 45.4642 489.898 42.3066 486.773 38.6934C 483.648 35.0475 482.085 30.7507 482.085 25.8027C 482.085 19.8132 484.201 15.0117 488.433 11.3984C 492.697 7.7526 498.101 5.92969 504.644 5.92969C 509.006 5.92969 512.896 6.85742 516.314 8.71289C 519.732 10.5358 522.352 13.1237 524.175 16.4766C 526.03 19.8294 526.958 23.638 526.958 27.9023L 512.651 27.9023C 512.651 24.582 511.935 22.0592 510.503 20.334C 509.103 18.5762 507.069 17.6973 504.4 17.6973C 501.893 17.6973 499.94 18.446 498.54 19.9434C 497.14 21.4082 496.441 23.3939 496.441 25.9004C 496.441 27.8535 497.222 29.6276 498.784 31.2227C 500.347 32.7852 503.114 34.4128 507.085 36.1055C 514.019 38.612 519.048 41.6882 522.173 45.334C 525.331 48.9798 526.909 53.6185 526.909 59.25C 526.909 65.4349 524.94 70.2689 521.001 73.752C 517.062 77.235 511.707 78.9766 504.937 78.9766C 500.347 78.9766 496.164 78.0326 492.388 76.1445C 488.612 74.2565 485.65 71.5547 483.501 68.0391C 481.385 64.5234 480.327 60.373 480.327 55.5879L 494.732 55.5879C 494.732 59.6895 495.529 62.668 497.124 64.5234C 498.719 66.3789 501.323 67.3066 504.937 67.3066C 509.95 67.3066 512.456 64.6536 512.456 59.3477ZM 566.46 59.3477C 566.46 56.4505 565.711 54.2695 564.214 52.8047C 562.749 51.3073 560.064 49.7611 556.157 48.166C 549.028 45.4642 543.901 42.3066 540.776 38.6934C 537.651 35.0475 536.089 30.7507 536.089 25.8027C 536.089 19.8132 538.205 15.0117 542.437 11.3984C 546.701 7.7526 552.105 5.92969 558.648 5.92969C 563.01 5.92969 566.9 6.85742 570.318 8.71289C 573.735 10.5358 576.356 13.1237 578.179 16.4766C 580.034 19.8294 580.962 23.638 580.962 27.9023L 566.655 27.9023C 566.655 24.582 565.939 22.0592 564.507 20.334C 563.107 18.5762 561.073 17.6973 558.403 17.6973C 555.897 17.6973 553.944 18.446 552.544 19.9434C 551.144 21.4082 550.444 23.3939 550.444 25.9004C 550.444 27.8535 551.226 29.6276 552.788 31.2227C 554.351 32.7852 557.118 34.4128 561.089 36.1055C 568.023 38.612 573.052 41.6882 576.177 45.334C 579.334 48.9798 580.913 53.6185 580.913 59.25C 580.913 65.4349 578.944 70.2689 575.005 73.752C 571.066 77.235 565.711 78.9766 558.941 78.9766C 554.351 78.9766 550.168 78.0326 546.392 76.1445C 542.616 74.2565 539.653 71.5547 537.505 68.0391C 535.389 64.5234 534.331 60.373 534.331 55.5879L 548.735 55.5879C 548.735 59.6895 549.533 62.668 551.128 64.5234C 552.723 66.3789 555.327 67.3066 558.941 67.3066C 563.954 67.3066 566.46 64.6536 566.46 59.3477Z"/>
</defs>
</svg>
