<svg width="815" height="368" viewBox="0 0 815 368" version="1.1" xmlns="http://www.w3.org/2000/svg" xmlns:xlink="http://www.w3.org/1999/xlink" xmlns:figma="http://www.figma.com/figma/ns">
<title>Vector</title>
<desc>Created using Figma</desc>
<g id="Canvas" transform="translate(721 231)" figma:type="canvas">
<g id="Vector" figma:type="vector">
<use xlink:href="#path0_stroke" transform="translate(-724 -224.754)" fill="#828282"/>
</g>
</g>
<defs>
<path id="path0_stroke" d="M 138.23 0L 140.45 -1.15141L 138.274 -5.34477L 136.03 -1.18717L 138.23 0ZM 265.563 245.403L 263.344 246.554L 263.344 246.554L 265.563 245.403ZM 387.681 83.8677L 389.412 82.0639L 387.383 80.1164L 385.687 82.36L 387.681 83.8677ZM 633.953 48.7957L 636.158 47.6163L 633.659 42.9465L 631.642 47.8435L 633.953 48.7957ZM 101.687 158.586L 99.9781 160.411L 101.339 161.685L 102.948 160.745L 101.687 158.586ZM 138.23 137.238L 139.923 135.398L 138.564 134.148L 136.969 135.079L 138.23 137.238ZM 176.363 172.31L 174.671 174.15L 176.488 175.821L 178.182 174.025L 176.363 172.31ZM 209.439 137.238L 211.659 136.087L 211.659 136.087L 209.439 137.238ZM 326.622 164.635L 324.628 163.127L 326.622 164.635ZM 354.315 189.083L 352.66 190.958L 354.169 192.29L 355.792 191.1L 354.315 189.083ZM 387.681 164.635L 387.888 162.144L 386.957 162.066L 386.203 162.619L 387.681 164.635ZM 633.953 115.89L 635.818 114.225L 634.68 112.95L 633.079 113.548L 633.953 115.89ZM 653.02 137.238L 651.155 138.903L 653.139 141.124L 654.983 138.786L 653.02 137.238ZM 263.344 246.554L 331.441 377.793L 335.879 375.491L 267.782 244.251L 263.344 246.554ZM 2.20014 257.365L 71.3154 129.276L 66.9151 126.902L -2.20014 254.99L 2.20014 257.365ZM 71.3154 129.276L 140.431 1.18717L 136.03 -1.18717L 66.9151 126.902L 71.3154 129.276ZM 67.4065 129.914L 99.9781 160.411L 103.395 156.761L 70.8239 126.264L 67.4065 129.914ZM 102.948 160.745L 139.491 139.397L 136.969 135.079L 100.426 156.427L 102.948 160.745ZM 136.538 139.078L 174.671 174.15L 178.055 170.47L 139.923 135.398L 136.538 139.078ZM 136.011 1.15141L 207.22 138.389L 211.659 136.087L 140.45 -1.15141L 136.011 1.15141ZM 207.22 138.389L 263.344 246.554L 267.782 244.251L 211.659 136.087L 207.22 138.389ZM 178.182 174.025L 211.258 138.953L 207.621 135.523L 174.544 170.595L 178.182 174.025ZM 267.557 246.91L 328.616 166.143L 324.628 163.127L 263.569 243.895L 267.557 246.91ZM 328.616 166.143L 389.675 85.3753L 385.687 82.36L 324.628 163.127L 328.616 166.143ZM 324.967 166.509L 352.66 190.958L 355.969 187.209L 328.277 162.761L 324.967 166.509ZM 355.792 191.1L 389.158 166.652L 386.203 162.619L 352.837 187.067L 355.792 191.1ZM 385.95 85.6714L 478.103 174.114L 481.566 170.506L 389.412 82.0639L 385.95 85.6714ZM 478.103 174.114L 554.263 247.206L 557.725 243.599L 481.566 170.506L 478.103 174.114ZM 387.473 167.126L 479.627 174.801L 480.042 169.819L 387.888 162.144L 387.473 167.126ZM 501.212 377.594L 603.601 129.041L 598.978 127.137L 496.589 375.69L 501.212 377.594ZM 603.601 129.041L 636.265 49.7479L 631.642 47.8435L 598.978 127.137L 603.601 129.041ZM 602.164 130.431L 634.828 118.232L 633.079 113.548L 600.415 125.747L 602.164 130.431ZM 632.089 117.555L 651.155 138.903L 654.884 135.573L 635.818 114.225L 632.089 117.555ZM 631.749 49.9752L 667.649 117.069L 672.057 114.71L 636.158 47.6163L 631.749 49.9752ZM 667.649 117.069L 812.879 388.496L 817.287 386.137L 672.057 114.71L 667.649 117.069ZM 654.983 138.786L 671.816 117.438L 667.89 114.342L 651.057 135.69L 654.983 138.786Z"/>
</defs>
</svg>
